<svg xmlns="http://www.w3.org/2000/svg" aria-hidden="true" style="position:absolute;width:0;height:0" overflow="hidden">
  <defs>

    <symbol id="icon-menu" viewBox="0 0 32 32">
<path d="M29.333 24.007c0 0.733-0.595 1.327-1.327 1.327h-10.68c-0.733 0-1.327-0.594-1.327-1.327s0.594-1.327 1.327-1.327h10.68c0.733 0 1.327 0.593 1.327 1.327zM29.333 16c0 0.733-0.595 1.327-1.327 1.327h-24.013c-0.733 0-1.327-0.594-1.327-1.327s0.594-1.327 1.327-1.327h24.013c0.733 0 1.327 0.595 1.327 1.327zM28.007 9.32c0.733 0 1.327-0.594 1.327-1.327s-0.594-1.327-1.327-1.327h-16.013c-0.733 0-1.327 0.594-1.327 1.327s0.594 1.327 1.327 1.327h16.013z"></path>
</symbol>

<symbol id="icon-arrow-prev" viewBox="0 0 17 32">
<path stroke-linejoin="round" stroke-linecap="round" stroke-miterlimit="4" stroke-width="1.3913" d="M15.652 0.696l-14.957 14.957 14.957 14.957"></path>
</symbol>

<symbol id="icon-ratio-star" viewBox="0 0 34 32">
<path d="M16.465 0l5.8 9.329 10.664 2.634-7.080 8.397 0.792 10.957-10.176-4.138-10.176 4.138 0.792-10.956-7.080-8.401 10.664-2.634z"></path>
</symbol>

<symbol id="icon-products-icon" viewBox="0 0 41 32">
<path fill="#111" style="fill: var(--color1, #111)" d="M4.613 4.379h29.815v22.755h-29.815z"></path>
<path fill="#000" style="fill: var(--color2, #000)" d="M6.106 0h26.831v31.514h-26.831z"></path>
<path fill="#fff" style="fill: var(--color3, #fff)" d="M16.609 12.785c-0.297 0-0.42-0.241-0.42-0.593v-1.645h0.474v-0.023h-0.474v-0.511h-0.023c-0.032 0.224-0.087 0.31-0.233 0.346v0.165h-0.209v0.023h0.209v1.623c0 0.55 0.302 0.646 0.607 0.646 0.115 0 0.178-0.018 0.233-0.054v-0.023c-0.047 0.028-0.103 0.044-0.164 0.045h-0zM19.178 11.208c0-0.538-0.329-0.73-0.771-0.73-0.32 0-0.589 0.187-0.707 0.41v-0.76c0-0.461 0.032-0.666 0.077-0.684v-0.023h-0.62v0.023c0.26 0 0.287 0.164 0.287 0.497v2.312c0 0.333-0.027 0.5-0.287 0.5v0.023h0.829v-0.023c-0.26 0-0.287-0.168-0.287-0.5v-1.313c0.114-0.238 0.345-0.404 0.617-0.424l0.002-0c0.452 0 0.607 0.365 0.607 0.669v1.068c-0.005 0.333-0.028 0.5-0.288 0.5v0.023h0.826v-0.023c-0.26 0-0.282-0.168-0.287-0.5zM21.961 11.259c-0.092-0.521-0.488-0.817-1.027-0.776-0.634 0.051-1.13 0.529-1.075 1.254 0.054 0.774 0.646 1.125 1.29 1.079 0.346-0.023 0.525-0.141 0.701-0.282v-0.051c-0.179 0.185-0.425 0.303-0.699 0.315l-0.002 0c-0.488 0.009-0.957-0.397-1.016-1.075-0.014-0.16 0-0.32 0.036-0.466zM20.943 10.501c0.47 0.005 0.689 0.36 0.726 0.739h-1.496c0.114-0.429 0.419-0.748 0.769-0.739z"></path>
<path fill="#e0ebd7" style="fill: var(--color4, #e0ebd7)" d="M1.569 24.767q-0.087-0.045-0.087-0.175 0-0.11 0.175-0.394 0.196-0.349 1.16-2.406c1.22-2.698 2.068-4.421 2.947-6.127l-0.41 0.875q0.678-1.356 1.139-2.079 0.196-0.307 0.152-0.328-0.175-0.022 0-0.284 0.109-0.174 0.416-0.461 0.307-0.283 0.438-0.328 0.154-0.044 0.218 0.088 0.088 0.109 0.023 0.262l-0.262 0.371q-0.701 0.942-1.467 2.386-0.503 0.963-2.931 5.907-0.307 0.657-0.307 0.678l0.045-0.044 0.109-0.11q0.065-0.086 0.154-0.174c0.583-0.659 1.206-1.255 1.874-1.795l0.029-0.023q1.028-0.786 1.4-0.502 0.438 0.326-0.262 1.268l0.371-0.022q0.371 0 0.678 0.022 0.503 0.022 0.022 0.044h-0.241c-0.259 0.006-0.509 0.030-0.752 0.071l0.030-0.004-0.218 0.044-0.285 0.284c-0.153 0.167-0.317 0.317-0.494 0.453l-0.009 0.007c-0.186 0.151-0.393 0.296-0.611 0.425l-0.024 0.013q-0.372 0.197-0.657 0.197t-0.306-0.154q-0.020-0.175 0.218-0.394 0.636-0.59 1.729-0.852c0.107-0.031 0.197-0.092 0.263-0.174l0.001-0.001q0.284-0.307 0.393-0.591 0.11-0.284 0.022-0.393-0.087-0.088-0.371 0.022-0.634 0.262-1.86 1.531-1.641 1.663-2.079 2.538-0.132 0.241-0.197 0.307t-0.175 0.022zM4.151 22.666q0.614-0.197 1.292-0.897 0.087-0.11 0.044-0.11-0.548 0.132-1.181 0.548-0.525 0.349-0.46 0.503 0.022 0.065 0.307-0.044zM7.237 22.295q-0.042-0.352 0.351-0.986t0.986-1.181q0.787-0.722 1.334-0.854c0.056-0.015 0.121-0.023 0.188-0.023 0.131 0 0.254 0.033 0.362 0.091l-0.004-0.002c0.157 0.072 0.265 0.228 0.265 0.409 0 0.010-0 0.020-0.001 0.030l0-0.001c-0.025 0.187-0.103 0.352-0.22 0.482l0.001-0.001q-0.241 0.285-0.788 0.635-0.525 0.349-1.028 0.568-0.393 0.177-0.57 0.197c-0.017 0.002-0.037 0.004-0.057 0.004-0.102 0-0.196-0.034-0.271-0.092l0.001 0.001-0.109 0.197q-0.285 0.634 0.109 0.744 0.154 0.044 0.371 0.044 0.22 0 0.394-0.022 0.197-0.044 0.416-0.109c0.156-0.041 0.288-0.086 0.414-0.139l-0.020 0.008q0.154-0.064 0.349-0.132 0.218-0.086 0.285-0.109l1.509-0.657q0 0.044-0.787 0.481-0.307 0.175-0.767 0.371-0.436 0.198-1.093 0.417-0.635 0.219-1.094 0.154-0.461-0.090-0.525-0.525zM8.311 21.156q0.503-0.174 1.248-0.657 0.765-0.481 0.765-0.742 0-0.045-0.065-0.090-0.154-0.086-0.591 0.132c-0.35 0.187-0.652 0.406-0.921 0.659l0.002-0.002q-0.568 0.503-0.7 0.744-0.020 0.045 0.065 0.022 0.067-0.020 0.197-0.064zM13.714 22.842q-0.109-0.131-0.044-0.481 0.065-0.349 0.154-0.568 0.087-0.219 0-0.284-0.109 0-0.745 0.218-0.020 0.023-0.109 0.045c-0.193 0.071-0.463 0.154-0.738 0.225l-0.071 0.016c-0.117 0.037-0.252 0.060-0.392 0.065l-0.003 0q-0.133 0-0.284-0.022c-0.097-0.024-0.175-0.088-0.218-0.173l-0.001-0.002c-0.043-0.088-0.068-0.191-0.068-0.301 0-0.179 0.067-0.342 0.177-0.466l-0.001 0.001q0.285-0.394 1.138-0.832 0.854-0.458 1.422-0.547 0.526-0.065 0.503 0.307c-0.011 0.113-0.078 0.209-0.172 0.26l-0.002 0.001q-0.132 0.067-0.219-0.087-0.023-0.064-0.088-0.044-0.438 0.064-1.138 0.416-0.699 0.349-1.028 0.634-0.197 0.197-0.197 0.329 0 0.262 0.832 0.022 1.16-0.349 1.334-0.351 0.197-0.020 0.285 0.023c0.080 0.066 0.131 0.166 0.131 0.277 0 0.003-0 0.005-0 0.008v-0q0.022 0.154-0.131 0.568c-0.051 0.134-0.097 0.296-0.129 0.462l-0.003 0.019q0 0.067 0.065 0.067 0.088-0.023 0.745-0.351 0.678-0.349 1.29-0.657 0.635-0.307 0.657-0.284 0 0.022-0.371 0.262l-0.964 0.57c-0.181 0.112-0.503 0.294-0.829 0.469l-0.157 0.077q-0.326 0.154-0.436 0.175-0.088 0.022-0.197-0.067zM16.696 22.624c-0.094 0.068-0.203 0.127-0.318 0.171l-0.010 0.003c-0.052 0.014-0.113 0.022-0.175 0.022s-0.122-0.008-0.18-0.023l0.005 0.001q-0.154-0.044-0.154-0.218 0-0.111 0.307-0.723 0.941-1.838 0.918-1.903c-0.003-0.013-0.004-0.029-0.004-0.044 0-0.095 0.055-0.178 0.134-0.218l0.001-0.001q0.174-0.088 0.284 0.022t0.022 0.371q-0.086 0.285-0.787 1.554c-0.094 0.166-0.212 0.396-0.321 0.629l-0.030 0.071q0.045 0.023 0.394-0.218 0.328-0.22 0.919-0.745 0.722-0.613 1.006-0.787 0.307-0.175 0.416-0.044 0.065 0.087-0.065 0.59-0.11 0.503-0.241 0.963-0.132 0.438-0.045 0.438 0.154 0 0.723-0.307 0.568-0.326 1.050-0.612 0.481-0.307 0.481-0.284 0.023 0-0.46 0.371-0.461 0.351-0.657 0.483-1.267 0.876-1.4 0.46-0.042-0.131 0.132-1.007c0.056-0.193 0.11-0.437 0.149-0.686l0.005-0.036c-0.236 0.171-0.443 0.343-0.638 0.528l0.003-0.003q-0.678 0.614-0.963 0.854c-0.146 0.125-0.311 0.235-0.489 0.322l-0.014 0.006zM20.204 23.191q-0.044 0-0.067-0.044-0.044-0.023-0.044-0.067-0.022-0.020-0.022-0.064 0-0.045 0.022-0.11c0.016-0.046 0.030-0.083 0.047-0.118l-0.003 0.008c0.043-0.117 0.094-0.219 0.157-0.312l-0.003 0.005c0.028-0.068 0.057-0.125 0.090-0.18l-0.003 0.006c0.028-0.068 0.058-0.126 0.091-0.181l-0.003 0.006q0.612-1.225 2.079-3.872l0.328-0.57q0-0.020-0.416 0-0.415 0.022-1.093 0.088-0.657 0.044-1.335 0.109c-0.891 0.065-1.427 0.112-1.962 0.163l0.408-0.032q-0.219 0-0.284-0.044-0.262-0.154-0.044-0.307 0.065-0.065 1.29-0.154 0.635-0.064 3.676-0.239l0.197-0.372q0.044-0.065 0.351-0.591 0.305-0.525 0.568-0.984 0.262-0.48 0.328-0.613 0.197-0.393 0.416-0.196 0.088 0.087 0.044 0.218-0.045 0.133-0.438 0.81-0.48 0.832-0.722 1.27-0.262 0.415-0.241 0.436 0.023 0.023 0.7-0.022 1.99-0.064 3.699-0.064 0.457 0 0.896 0.020 0.461 0 0.722 0.022 0.264 0.023 0.241 0.044l-2.669 0.154-3.83 0.241q-0.503 0.854-1.4 2.429-0.896 1.553-1.268 2.209c-0.060 0.092-0.118 0.2-0.169 0.312l-0.007 0.016c-0.044 0.070-0.081 0.15-0.107 0.235l-0.002 0.007q-0.044 0.087-0.023 0.087 0.177 0 1.16-0.57 1.993-1.16 1.86-1.006-0.064 0.065-0.742 0.503l-0.678 0.438q-1.49 0.984-1.795 0.876zM22.861 23.345q-0.548-0.242 0.284-1.905 0.307-0.613 0.525-0.787 0.264-0.241 0.394 0.044 0.109 0.284-0.11 0.351-0.087 0-0.196 0.154-0.285 0.436-0.525 1.006-0.242 0.547-0.22 0.722 0.044 0.109 0.088 0.109 0.239 0.022 0.919-0.503c0.429-0.317 0.808-0.647 1.158-1.005l0.002-0.002q0.241-0.241 0.241-0.219 0 0.087-0.197 0.371-0.284 0.372-0.854 0.897-1.050 0.986-1.51 0.767zM24.39 19.581q-0.307 0-0.307-0.242 0-0.131 0.307-0.284 0.307-0.152 0.591-0.197t0.328 0q0.022 0.065-0.613 0.461-0.196 0.131-0.218 0.196 0 0.065-0.088 0.065zM24.868 22.294q-0.044-0.352 0.349-0.986t0.986-1.181q0.787-0.722 1.334-0.854c0.057-0.015 0.122-0.024 0.189-0.024 0.131 0 0.255 0.033 0.363 0.091l-0.004-0.002c0.157 0.072 0.263 0.228 0.263 0.408 0 0.010-0 0.021-0.001 0.031l0-0.001c-0.025 0.187-0.103 0.352-0.22 0.482l0.001-0.001q-0.241 0.285-0.788 0.635-0.524 0.349-1.028 0.568-0.394 0.177-0.568 0.197c-0.018 0.002-0.038 0.004-0.058 0.004-0.102 0-0.196-0.034-0.272-0.092l0.001 0.001-0.109 0.197q-0.285 0.634 0.109 0.744 0.154 0.044 0.371 0.044 0.22 0 0.394-0.022 0.197-0.044 0.416-0.109c0.156-0.041 0.288-0.086 0.414-0.139l-0.020 0.008q0.154-0.064 0.349-0.132 0.218-0.086 0.285-0.109l1.51-0.657q0 0.044-0.788 0.481-0.307 0.175-0.767 0.371-0.438 0.198-1.093 0.417-0.635 0.219-1.094 0.154-0.461-0.090-0.525-0.525zM25.939 21.155q0.503-0.174 1.248-0.657 0.765-0.481 0.765-0.742 0-0.045-0.065-0.090-0.154-0.086-0.591 0.132c-0.35 0.187-0.652 0.406-0.921 0.659l0.002-0.002q-0.568 0.503-0.7 0.744-0.022 0.045 0.067 0.022 0.065-0.020 0.196-0.064zM29.176 23.826q-0.154-0.067-0.197-0.175-0.065-0.088-0.022-0.219 0.044-0.11 0.109-0.241c0.048-0.077 0.106-0.142 0.174-0.196l0.002-0.001q0.329-0.349 1.16-0.832 0.132-0.064 0.132-0.087 0-0.022-0.154-0.109-0.219-0.11-0.787-0.241c-0.255-0.048-0.475-0.109-0.688-0.185l0.031 0.010c-0.115-0.058-0.21-0.139-0.283-0.238l-0.002-0.002c-0.014-0.039-0.023-0.083-0.023-0.13 0-0.008 0-0.017 0.001-0.025l-0 0.001q0-0.109 0.022-0.175 0.174-0.307 1.181-0.896 1.006-0.591 1.663-0.591 0.438 0 0.416 0.371c-0.017 0.14-0.064 0.266-0.134 0.376l0.002-0.004q-0.087 0.154-0.241 0.022-0.065-0.065-0.065-0.196v-0.154q-0.416 0.064-1.073 0.371c-0.415 0.189-0.766 0.386-1.099 0.609l0.028-0.018q-0.285 0.219-0.285 0.284 0 0.044 0.329 0.132 0.349 0.087 0.787 0.218 0.461 0.133 0.635 0.307l0.109 0.087 0.329-0.174q0.132-0.065 0.503-0.197 0.394-0.154 0.394-0.132t-0.197 0.11q-0.394 0.196-0.767 0.416l-0.087 0.044q-0.087 0.042-0.065 0.154 0.218 0.655-0.678 1.334c-0.181 0.139-0.392 0.251-0.62 0.324l-0.015 0.004q-0.328 0.11-0.525 0.045zM29.285 23.323q-0.154 0.261 0.088 0.241c0.198-0.023 0.377-0.094 0.529-0.2l-0.004 0.002q0.678-0.416 0.787-0.876c0.007-0.023 0.012-0.049 0.012-0.077s-0.004-0.054-0.012-0.079l0 0.002q0-0.109-0.022-0.109-0.109 0-0.787 0.525-0.461 0.349-0.59 0.57zM31.25 23.191q-0.045 0-0.065-0.044-0.044-0.023-0.044-0.067-0.022-0.020-0.022-0.064 0-0.045 0.022-0.11c0.016-0.046 0.030-0.083 0.047-0.118l-0.003 0.008c0.043-0.117 0.094-0.219 0.157-0.312l-0.003 0.005c0.028-0.068 0.057-0.125 0.090-0.18l-0.003 0.006c0.028-0.068 0.057-0.126 0.090-0.181l-0.003 0.006q0.613-1.225 2.079-3.872l0.329-0.57q0-0.020-0.416 0-0.417 0.022-1.094 0.088-0.657 0.044-1.335 0.109-1.356 0.109-1.553 0.132-0.218 0-0.285-0.044-0.261-0.154-0.044-0.307 0.067-0.065 1.292-0.154 0.635-0.064 3.676-0.239l0.197-0.372q0.042-0.065 0.349-0.591 0.307-0.525 0.568-0.984 0.264-0.48 0.329-0.613 0.196-0.393 0.416-0.196 0.087 0.087 0.044 0.218-0.045 0.133-0.438 0.81-0.481 0.832-0.722 1.27-0.264 0.415-0.241 0.436t0.7-0.022q1.992-0.064 3.698-0.064 0.46 0 0.896 0.020 0.461 0 0.723 0.022t0.241 0.044l-2.67 0.154-3.828 0.241q-0.503 0.854-1.4 2.429-0.897 1.553-1.27 2.209c-0.059 0.092-0.117 0.2-0.168 0.312l-0.006 0.016c-0.044 0.070-0.081 0.15-0.108 0.235l-0.002 0.007q-0.044 0.087-0.022 0.087 0.175 0 1.16-0.57 1.99-1.16 1.86-1.006-0.065 0.065-0.744 0.503l-0.678 0.438q-1.487 0.984-1.795 0.876z"></path>
</symbol>
<svg aria-hidden="true" style="position: absolute; width: 0; height: 0; overflow: hidden;" version="1.1" xmlns="http://www.w3.org/2000/svg" xmlns:xlink="http://www.w3.org/1999/xlink">
<defs>
<symbol id="icon-gps-mark" viewBox="0 0 33 32">
<path d="M10.62 21.892c1.408 1.968 2.692 3.625 4.031 5.234l-0.118-0.146h-2.663c-0.298 0-0.54 0.242-0.54 0.54s0.242 0.54 0.54 0.54v0h8.632c0.298 0 0.54-0.242 0.54-0.54s-0.242-0.54-0.54-0.54h-2.662q0.174-0.21 0.366-0.444c1.086-1.318 2.25-2.83 3.365-4.38l0.181-0.264c1.212-1.651 2.394-3.53 3.441-5.492l0.123-0.253c1.102-2.163 1.661-3.96 1.661-5.339 0-0.004 0-0.010 0-0.015 0-2.978-1.208-5.674-3.16-7.625l-0-0c-0.099-0.108-0.241-0.175-0.398-0.175-0.298 0-0.54 0.242-0.54 0.54 0 0.157 0.067 0.298 0.174 0.397l0 0c1.758 1.756 2.845 4.182 2.845 6.863 0 0.005 0 0.011 0 0.016v-0.001c0 1.208-0.519 2.84-1.543 4.85-1.144 2.163-2.299 3.998-3.573 5.74l0.090-0.13c-1.512 2.114-2.914 3.912-4.383 5.652l0.108-0.131c-0.101 0.115-0.247 0.187-0.411 0.187s-0.31-0.072-0.41-0.186l-0.001-0.001c-1.362-1.61-2.765-3.408-4.096-5.26l-0.178-0.26c-1.184-1.613-2.34-3.448-3.363-5.365l-0.121-0.247c-1.025-2.010-1.543-3.641-1.543-4.849 0-0.001 0-0.002 0-0.003 0-4.003 2.417-7.441 5.872-8.935l0.063-0.024c1.116-0.481 2.415-0.761 3.78-0.761s2.664 0.28 3.844 0.785l-0.064-0.024c0.067 0.033 0.147 0.052 0.23 0.052 0.298 0 0.54-0.242 0.54-0.54 0-0.23-0.144-0.427-0.347-0.504l-0.004-0.001c-5.494-2.318-11.827 0.257-14.146 5.75-0.536 1.238-0.848 2.68-0.848 4.195 0 0.004 0 0.008 0 0.012v-0.001c0 1.38 0.559 3.175 1.66 5.342 1.17 2.214 2.353 4.092 3.657 5.874l-0.092-0.132z"></path>
<path d="M16.187 5.938c0.298 0 0.54-0.242 0.54-0.54s-0.242-0.54-0.54-0.54v0c-0 0-0.001 0-0.001 0-2.98 0-5.396 2.416-5.396 5.396s2.416 5.396 5.396 5.396c2.98 0 5.396-2.416 5.396-5.396 0-1.49-0.604-2.839-1.58-3.815v0c-0.099-0.107-0.24-0.175-0.398-0.175-0.298 0-0.54 0.242-0.54 0.54 0 0.157 0.067 0.299 0.174 0.397l0 0c0.781 0.781 1.265 1.861 1.265 3.053 0 2.384-1.933 4.317-4.317 4.317s-4.317-1.933-4.317-4.317c0-2.384 1.933-4.317 4.317-4.317 0 0 0 0 0 0v0zM32.17 29.447l-3.318-5.935c-0.295-0.51-0.838-0.848-1.46-0.848-0.003 0-0.006 0-0.009 0h-3.846c-0.298 0-0.54 0.242-0.54 0.54s0.242 0.54 0.54 0.54h3.846c0.003-0 0.007-0 0.011-0 0.218 0 0.41 0.117 0.515 0.291l0.002 0.003 3.317 5.935c0.041 0.070 0.066 0.155 0.066 0.245 0 0.094-0.026 0.181-0.072 0.255l0.001-0.002c-0.107 0.173-0.296 0.287-0.512 0.287-0.004 0-0.007-0-0.011-0h-29.027c-0.005 0-0.010 0-0.016 0-0.214 0-0.401-0.114-0.505-0.285l-0.001-0.003c-0.044-0.072-0.071-0.16-0.071-0.253 0-0.090 0.024-0.175 0.067-0.247l-0.001 0.002 3.317-5.935c0.106-0.178 0.298-0.295 0.517-0.295 0.004 0 0.007 0 0.011 0h3.844c0.288-0.013 0.517-0.249 0.517-0.54s-0.229-0.527-0.516-0.539l-0.001-0h-3.845c-0.003-0-0.007-0-0.010-0-0.622 0-1.165 0.338-1.455 0.84l-0.004 0.008-3.316 5.935c-0.127 0.222-0.202 0.487-0.202 0.77 0 0.295 0.081 0.571 0.223 0.807l-0.004-0.007c0.302 0.515 0.857 0.827 1.453 0.82h29.026c0.006 0 0.014 0 0.021 0 0.607 0 1.138-0.326 1.428-0.813l0.004-0.008c0.137-0.228 0.218-0.504 0.218-0.799 0-0.283-0.075-0.549-0.206-0.779l0.004 0.008z"></path>
<path d="M26.439 25.362h-2.159c-0 0-0 0-0 0-0.111 0-0.215 0.034-0.3 0.091l0.002-0.001-1.619 1.080c-0.146 0.098-0.24 0.263-0.24 0.449 0 0.298 0.242 0.54 0.54 0.54 0.112 0 0.216-0.034 0.302-0.092l-0.002 0.001 1.48-0.989h1.997c0.298 0 0.54-0.242 0.54-0.54s-0.242-0.54-0.54-0.54v0zM23.201 29.139c0 0.298 0.242 0.54 0.54 0.54h4.316c0.298 0 0.54-0.242 0.54-0.54s-0.242-0.54-0.54-0.54v0h-4.316c-0.298 0-0.54 0.242-0.54 0.54v0zM9.712 27.52c0.298-0.001 0.538-0.242 0.538-0.54 0-0.186-0.094-0.35-0.237-0.447l-0.002-0.001-1.618-1.080c-0.084-0.056-0.187-0.090-0.299-0.090-0.001 0-0.001 0-0.002 0h-2.159c-0.288 0.013-0.517 0.249-0.517 0.54s0.229 0.527 0.516 0.539l0.001 0h1.997l1.482 0.988c0.084 0.057 0.187 0.091 0.298 0.091h0zM4.317 28.6c-0.284 0.018-0.507 0.252-0.507 0.539s0.223 0.521 0.506 0.539l0.002 0h4.316c0.007 0 0.015 0 0.023 0 0.298 0 0.54-0.242 0.54-0.54s-0.242-0.54-0.54-0.54c-0.008 0-0.016 0-0.024 0.001l0.001-0z"></path>
</symbol>
<symbol id="icon-time-mark" viewBox="0 0 32 32">
<path d="M15.976 0c-8.809 0-15.976 7.166-15.976 15.976s7.166 15.976 15.976 15.976c8.809 0 15.976-7.166 15.976-15.976s-7.166-15.976-15.976-15.976zM15.976 30.887c-8.222 0-14.911-6.689-14.911-14.911s6.689-14.911 14.911-14.911 14.911 6.689 14.911 14.911-6.689 14.911-14.911 14.911z"></path>
<path d="M16.508 13.857v-5.401c0.001-0.010 0.001-0.021 0.001-0.032 0-0.295-0.239-0.533-0.533-0.533s-0.533 0.239-0.533 0.533c0 0.011 0 0.023 0.001 0.034l-0-0.002v5.401c-0.745 0.194-1.329 0.776-1.522 1.522h-3.803c-0.294 0-0.532 0.238-0.532 0.532s0.238 0.532 0.532 0.532v0h3.803c0.244 0.924 1.071 1.594 2.054 1.597h0c1.176-0.002 2.129-0.954 2.13-2.13v-0c0-0.989-0.682-1.816-1.598-2.054zM15.976 16.977c-0.565-0.030-1.011-0.496-1.011-1.065s0.446-1.035 1.008-1.065l0.003-0c0.565 0.030 1.011 0.496 1.011 1.065s-0.446 1.035-1.008 1.065l-0.003 0zM15.976 5.261c0 0 0 0 0 0 0.294 0 0.533-0.238 0.533-0.532v-0.532c0-0.295-0.239-0.533-0.533-0.533s-0.533 0.239-0.533 0.533v0 0.533c0 0.294 0.239 0.531 0.533 0.531zM15.976 26.562c0 0 0 0 0 0-0.294 0-0.533 0.238-0.533 0.532v0.532c0 0.295 0.239 0.533 0.533 0.533s0.533-0.239 0.533-0.533v0-0.533c-0.001-0.294-0.239-0.531-0.533-0.531 0 0 0 0 0 0v0zM27.692 15.379h-0.533c-0.010-0.001-0.021-0.001-0.032-0.001-0.295 0-0.533 0.239-0.533 0.533s0.239 0.533 0.533 0.533c0.011 0 0.023-0 0.034-0.001l-0.002 0h0.533c0.294 0 0.533-0.239 0.533-0.533s-0.239-0.533-0.533-0.533v0zM4.793 15.379h-0.533c-0.294 0-0.532 0.238-0.532 0.532s0.238 0.532 0.532 0.532h0.533c0.294 0 0.533-0.239 0.533-0.533s-0.239-0.533-0.533-0.533v0zM23.884 7.25l-0.377 0.376c-0.096 0.096-0.156 0.23-0.156 0.377 0 0.294 0.239 0.533 0.533 0.533 0.147 0 0.28-0.060 0.377-0.156v0l0.376-0.377c0.104-0.097 0.168-0.235 0.168-0.388 0-0.294-0.238-0.532-0.532-0.532-0.153 0-0.291 0.065-0.388 0.168l-0 0zM7.692 23.442l-0.376 0.376c-0.096 0.096-0.156 0.23-0.156 0.377 0 0.294 0.238 0.532 0.532 0.532 0.147 0 0.28-0.059 0.376-0.156v0l0.377-0.377c0.096-0.096 0.156-0.229 0.156-0.376 0-0.294-0.238-0.532-0.532-0.532-0.147 0-0.28 0.060-0.377 0.156v0zM24.26 23.442c-0.096-0.096-0.23-0.156-0.377-0.156-0.294 0-0.532 0.238-0.532 0.532 0 0.147 0.059 0.28 0.156 0.376v0l0.377 0.377c0.096 0.096 0.229 0.155 0.376 0.155s0.28-0.059 0.376-0.155l-0 0c0.096-0.096 0.156-0.23 0.156-0.377s-0.060-0.28-0.156-0.377v0zM8.068 7.25c-0.097-0.104-0.235-0.168-0.388-0.168-0.294 0-0.532 0.238-0.532 0.532 0 0.153 0.065 0.291 0.168 0.388l0 0 0.376 0.377c0.096 0.096 0.23 0.156 0.377 0.156s0.28-0.060 0.377-0.156v0c0.096-0.096 0.156-0.23 0.156-0.377s-0.060-0.28-0.156-0.377v0z"></path>
</symbol>
<symbol id="icon-email-mark" viewBox="0 0 32 32">
<path d="M31.947 12.215c-0.004-0.040-0.012-0.076-0.023-0.111l0.001 0.003c-0.007-0.035-0.017-0.066-0.030-0.095l0.001 0.003c-0.017-0.031-0.035-0.058-0.055-0.082l0.001 0.001c-0.021-0.031-0.045-0.058-0.070-0.082l-0-0c-0.009-0.008-0.012-0.017-0.021-0.025l-5.121-3.978v-4.123c0-0.882-0.715-1.597-1.597-1.597h-5.773l-2.311-1.794c-0.265-0.208-0.603-0.334-0.971-0.334s-0.706 0.126-0.975 0.336l0.003-0.003-2.312 1.794h-5.772c-0.882 0-1.598 0.715-1.598 1.597v4.123l-5.12 3.978c-0.010 0.008-0.013 0.017-0.021 0.025-0.026 0.024-0.050 0.051-0.070 0.081l-0.001 0.002c-0.019 0.024-0.037 0.050-0.052 0.079l-0.001 0.003c-0.012 0.026-0.022 0.057-0.029 0.089l-0.001 0.003c-0.011 0.031-0.019 0.067-0.022 0.105l-0 0.002c0 0.010-0.007 0.019-0.007 0.031v18.109c0 0.339 0.111 0.669 0.312 0.941 0.004 0.005 0.004 0.010 0.008 0.015q0.008 0.007 0.017 0.015c0.292 0.381 0.747 0.625 1.258 0.627h28.76c0.514-0.001 0.971-0.247 1.261-0.626l0.003-0.004c0.004-0.006 0.010-0.007 0.014-0.013q0.005-0.007 0.008-0.015c0.203-0.271 0.312-0.601 0.313-0.941v-18.107c0-0.012-0.006-0.021-0.007-0.032zM15.656 1.173c0.087-0.069 0.197-0.11 0.318-0.11s0.231 0.042 0.319 0.111l-0.001-0.001 1.229 0.954h-3.089zM1.731 30.888l13.925-10.818c0.087-0.069 0.197-0.11 0.318-0.11s0.231 0.042 0.319 0.111l-0.001-0.001 13.93 10.818zM30.888 30.057l-13.94-10.827c-0.265-0.208-0.603-0.334-0.971-0.334s-0.706 0.126-0.975 0.336l0.003-0.003-13.941 10.827v-16.999l8.727 6.778c0.088 0.067 0.2 0.108 0.321 0.108 0.295 0 0.533-0.239 0.533-0.533 0-0.169-0.078-0.319-0.201-0.417l-0.001-0.001-8.866-6.884 3.746-2.912v4.115c0.017 0.28 0.249 0.501 0.532 0.501s0.515-0.221 0.532-0.5l0-0.002v-9.586c0.001-0.294 0.239-0.532 0.533-0.532 0 0 0 0 0 0h18.107c0.294 0.001 0.532 0.239 0.532 0.533 0 0 0 0 0 0v0 9.585c0.017 0.28 0.249 0.501 0.532 0.501s0.515-0.221 0.532-0.5l0-0.002v-4.115l3.747 2.912-8.882 6.896c-0.137 0.098-0.225 0.256-0.225 0.435 0 0.295 0.239 0.533 0.533 0.533 0.132 0 0.253-0.048 0.346-0.127l-0.001 0.001 8.743-6.788z"></path>
<path d="M22.366 12.779v-2.13c0-3.529-2.861-6.39-6.39-6.39s-6.39 2.861-6.39 6.39c0 3.529 2.861 6.39 6.39 6.39v0c0.010 0.001 0.021 0.001 0.032 0.001 0.295 0 0.533-0.239 0.533-0.533s-0.239-0.533-0.533-0.533c-0.011 0-0.023 0-0.034 0.001l0.002-0c-2.941 0-5.326-2.384-5.326-5.326s2.384-5.326 5.326-5.326c2.941 0 5.326 2.384 5.326 5.326v0 2.13c0 0.588-0.477 1.065-1.065 1.065s-1.065-0.477-1.065-1.065v-2.13c-0.017-0.28-0.249-0.501-0.532-0.501s-0.515 0.221-0.532 0.5l-0 0.002c0 1.177-0.954 2.13-2.13 2.13s-2.13-0.954-2.13-2.13c0-1.177 0.954-2.13 2.13-2.13v0c0.010 0.001 0.021 0.001 0.032 0.001 0.295 0 0.533-0.239 0.533-0.533s-0.239-0.533-0.533-0.533c-0.011 0-0.023 0-0.034 0.001l0.002-0c-0.002 0-0.004 0-0.006 0-1.765 0-3.195 1.431-3.195 3.195s1.431 3.195 3.195 3.195c0.833 0 1.592-0.319 2.161-0.842l-0.002 0.002c0.106 1.083 1.012 1.922 2.114 1.922 1.173 0 2.124-0.951 2.124-2.124 0-0.008-0-0.017-0-0.025v0.001z"></path>
</symbol>
<symbol id="icon-phone-mark" viewBox="0 0 32 32">
<path d="M30.569 24.65l-6.354-4.314c-0.287-0.196-0.642-0.312-1.023-0.312-0.593 0-1.121 0.282-1.456 0.719l-0.003 0.004-1.852 2.422c-0.144 0.194-0.372 0.318-0.629 0.318-0.141 0-0.274-0.037-0.388-0.103l0.004 0.002-0.352-0.198c-1.168-0.648-2.619-1.455-5.546-4.433-2.926-2.98-3.719-4.459-4.355-5.644l-0.194-0.359c-0.065-0.114-0.103-0.251-0.103-0.396 0-0.26 0.121-0.491 0.311-0.64l0.002-0.001 2.379-1.882c0.76-0.607 0.937-1.707 0.403-2.528l-4.238-6.468c-0.329-0.507-0.893-0.837-1.533-0.837-0.353 0-0.682 0.1-0.961 0.273l0.008-0.005-2.657 1.624c-0.829 0.505-1.441 1.295-1.704 2.231l-0.006 0.027c-0.955 3.548-0.236 9.672 8.627 18.694 7.050 7.176 12.299 9.105 15.906 9.105 0.012 0 0.026 0 0.040 0 0.861 0 1.694-0.119 2.483-0.342l-0.064 0.015c0.954-0.28 1.731-0.903 2.208-1.722l0.010-0.018 1.598-2.703c0.166-0.276 0.264-0.61 0.264-0.967 0-0.647-0.323-1.219-0.817-1.562l-0.006-0.004zM30.226 26.634l-1.594 2.705c-0.35 0.604-0.909 1.053-1.576 1.253l-0.019 0.005c-3.218 0.9-8.841 0.155-17.35-8.506-8.508-8.658-9.241-14.382-8.357-17.657 0.197-0.694 0.639-1.264 1.226-1.62l0.012-0.007 2.657-1.622c0.118-0.073 0.26-0.116 0.413-0.116 0.278 0 0.523 0.143 0.664 0.36l0.002 0.003 4.234 6.467c0.232 0.356 0.155 0.834-0.175 1.096l-2.379 1.884c-0.44 0.348-0.719 0.882-0.719 1.482 0 0.334 0.087 0.648 0.239 0.92l-0.005-0.009 0.188 0.349c0.669 1.248 1.5 2.801 4.535 5.889s4.559 3.935 5.785 4.616l0.343 0.192c0.795 0.454 1.797 0.242 2.351-0.494l1.85-2.421c0.147-0.191 0.375-0.313 0.633-0.313 0.166 0 0.32 0.051 0.447 0.138l-0.003-0.002 6.353 4.313c0.217 0.151 0.357 0.398 0.357 0.679 0 0.154-0.043 0.299-0.116 0.423l0.002-0.004zM17.788 5.327c4.91 0.006 8.887 4.055 8.893 9.052 0 0.294 0.235 0.533 0.524 0.533s0.524-0.239 0.524-0.533c-0.007-5.585-4.454-10.111-9.94-10.117-0.29 0.002-0.524 0.237-0.524 0.527 0 0.002 0 0.004 0 0.006v-0c0 0.293 0.235 0.531 0.524 0.531z"></path>
<path d="M17.788 8.522c3.177 0.004 5.75 2.624 5.754 5.857 0 0.295 0.235 0.533 0.524 0.533s0.524-0.239 0.524-0.533c-0.005-3.821-3.048-6.918-6.801-6.922-0.29 0.002-0.524 0.238-0.524 0.527 0 0.002 0 0.003 0 0.005v-0c0 0.294 0.235 0.533 0.524 0.533z"></path>
<path d="M17.788 11.716c1.444 0.002 2.614 1.193 2.615 2.663 0 0.294 0.235 0.532 0.524 0.532s0.524-0.239 0.524-0.533c-0.003-2.057-1.641-3.724-3.663-3.727-0.29 0.002-0.524 0.238-0.524 0.527 0 0.002 0 0.003 0 0.005v-0c0 0.294 0.235 0.533 0.524 0.533z"></path>
</symbol>

<svg aria-hidden="true" style="position: absolute; width: 0; height: 0; overflow: hidden;" version="1.1" xmlns="http://www.w3.org/2000/svg" xmlns:xlink="http://www.w3.org/1999/xlink">
<defs>
<symbol id="icon-footer-phone" viewBox="0 0 32 32">
<path d="M26.731 4.585c-2.849-2.93-6.829-4.748-11.233-4.748-8.649 0-15.661 7.012-15.661 15.661 0 4.406 1.82 8.387 4.748 11.233l0.004 0.004c2.813 2.719 6.65 4.395 10.879 4.395 8.649 0 15.661-7.012 15.661-15.661 0-4.231-1.678-8.070-4.404-10.888l0.004 0.004zM23.718 21.815l-0.004 0.002v-0.006l-0.792 0.791c-1.026 1.037-2.522 1.464-3.942 1.126-1.531-0.418-2.872-1.037-4.080-1.839l0.051 0.032c-1.198-0.773-2.239-1.617-3.181-2.561l-0-0c-0.865-0.86-1.646-1.802-2.331-2.814l-0.042-0.066c-0.716-1.040-1.321-2.236-1.756-3.511l-0.031-0.103c-0.488-1.506-0.083-3.155 1.045-4.265l0.93-0.928c0.12-0.122 0.286-0.197 0.47-0.197s0.348 0.075 0.468 0.195l2.936 2.937c0.258 0.258 0.26 0.678 0 0.936v0.002l-1.724 1.724c-0.257 0.255-0.417 0.608-0.417 0.998 0 0.311 0.101 0.599 0.273 0.832l-0.003-0.004q0.937 1.286 2.063 2.408 1.256 1.259 2.714 2.281c0.226 0.16 0.506 0.255 0.809 0.255 0.39 0 0.742-0.158 0.998-0.413v0l1.664-1.69c0.12-0.122 0.286-0.197 0.47-0.197s0.348 0.075 0.468 0.195l0 0h0.002l2.938 2.946c0.26 0.258 0.262 0.678 0.004 0.937z"></path>
</symbol>
<symbol id="icon-instagram" viewBox="0 0 32 32">
<path d="M18.658 15.661c0 1.656-1.342 2.998-2.998 2.998s-2.998-1.342-2.998-2.998v0c0-1.656 1.342-2.998 2.998-2.998s2.998 1.342 2.998 2.998v0z"></path>
<path d="M22.671 10.357c-0.154-0.405-0.383-0.75-0.673-1.033l-0.001-0.001c-0.284-0.29-0.629-0.519-1.014-0.666l-0.019-0.006c-0.316-0.124-0.792-0.271-1.67-0.311-0.949-0.043-1.233-0.053-3.633-0.053-2.402 0-2.686 0.009-3.633 0.053-0.879 0.040-1.355 0.188-1.672 0.311-0.405 0.153-0.751 0.382-1.035 0.672l-0 0c-0.297 0.29-0.527 0.644-0.672 1.035-0.122 0.316-0.269 0.791-0.309 1.668-0.043 0.949-0.053 1.233-0.053 3.633 0 2.402 0.009 2.686 0.053 3.635 0.040 0.877 0.186 1.353 0.309 1.67 0.145 0.392 0.375 0.745 0.674 1.035 0.29 0.297 0.642 0.527 1.033 0.672 0.316 0.122 0.792 0.269 1.67 0.309 0.949 0.043 1.233 0.053 3.633 0.053 2.402 0 2.686-0.009 3.633-0.053 0.879-0.038 1.355-0.186 1.672-0.309 0.785-0.301 1.404-0.922 1.707-1.707 0.122-0.316 0.269-0.791 0.309-1.67 0.043-0.949 0.053-1.233 0.053-3.633 0-2.402-0.009-2.686-0.053-3.633-0.040-0.877-0.186-1.355-0.309-1.672zM15.661 20.277c-0.028 0.001-0.060 0.001-0.093 0.001-2.55 0-4.617-2.067-4.617-4.617s2.067-4.617 4.617-4.617c0.033 0 0.065 0 0.098 0.001l-0.005-0c2.55 0 4.617 2.067 4.617 4.617s-2.067 4.617-4.617 4.617v0zM20.461 11.94c-0.596 0-1.079-0.483-1.079-1.079s0.483-1.079 1.079-1.079v0c0.596 0 1.080 0.483 1.080 1.080s-0.483 1.080-1.080 1.080v0z"></path>
<path d="M15.661 0c-8.575 0.097-15.489 7.071-15.489 15.66s6.914 15.563 15.48 15.66l0.009 0c8.575-0.097 15.489-7.071 15.489-15.66s-6.914-15.563-15.48-15.66l-0.009-0zM24.599 19.369c-0.043 0.956-0.196 1.609-0.418 2.182-0.477 1.212-1.418 2.153-2.599 2.619l-0.031 0.011c-0.572 0.222-1.225 0.375-2.184 0.418-0.96 0.043-1.265 0.055-3.708 0.055-2.441 0-2.748-0.011-3.708-0.056-0.954-0.041-1.609-0.194-2.182-0.416-0.623-0.238-1.155-0.591-1.592-1.037l-0.001-0.001c-0.447-0.437-0.8-0.968-1.025-1.563l-0.010-0.030c-0.224-0.572-0.376-1.225-0.42-2.184-0.043-0.96-0.055-1.265-0.055-3.708 0-2.441 0.011-2.748 0.056-3.708 0.041-0.956 0.194-1.609 0.416-2.182 0.236-0.624 0.589-1.156 1.036-1.592l0.001-0.001c0.437-0.447 0.969-0.8 1.563-1.025l0.030-0.010c0.572-0.224 1.225-0.376 2.184-0.42 0.96-0.043 1.265-0.055 3.708-0.055 2.441 0 2.748 0.011 3.708 0.056 0.956 0.041 1.609 0.194 2.182 0.416 0.6 0.226 1.143 0.58 1.592 1.037 0.457 0.45 0.811 0.994 1.035 1.592 0.226 0.572 0.376 1.225 0.42 2.184 0.043 0.96 0.055 1.265 0.055 3.708 0 2.441-0.011 2.748-0.056 3.708z"></path>
</symbol>
<symbol id="icon-facebook" viewBox="0 0 34 32">
<path d="M32.744 15.661c0-8.649-7.33-15.661-16.371-15.661s-16.373 7.012-16.373 15.661c0 8.648 7.332 15.659 16.373 15.659l0.288-0.004v-12.19h-3.522v-3.921h3.52v-2.886c0-3.347 2.135-5.169 5.256-5.169 1.495 0 2.778 0.107 3.153 0.154v3.499h-2.152c-1.698 0-2.027 0.772-2.027 1.905v2.498h4.060l-0.529 3.921h-3.531v11.59c6.844-1.877 11.853-7.908 11.853-15.057z"></path>
</symbol>

<symbol id="icon-burger" viewBox="0 0 32 32">
<path d="M32 16c0 8.836-7.164 16-16 16s-16-7.164-16-16 7.164-16 16-16 16 7.164 16 16zM7.494 13.806v0c0 0.393 0.318 0.711 0.711 0.711h15.588c0.393 0 0.711-0.318 0.711-0.711s-0.318-0.711-0.711-0.711h-15.588c-0.393 0-0.711 0.318-0.711 0.711zM8.206 9.016c-0.393 0-0.711 0.318-0.711 0.711s0.318 0.711 0.711 0.711v0h15.588c0.393 0 0.711-0.318 0.711-0.711s-0.318-0.711-0.711-0.711v0zM7.494 17.884v0c0 0.393 0.318 0.711 0.711 0.711h15.588c0.393 0 0.711-0.318 0.711-0.711s-0.318-0.711-0.711-0.711h-15.588c-0.393 0-0.711 0.318-0.711 0.711zM8.206 21.252c-0.393 0-0.711 0.318-0.711 0.711s0.318 0.711 0.711 0.711v0h15.588c0.393 0 0.711-0.318 0.711-0.711s-0.318-0.711-0.711-0.711v0z"></path>
</symbol>

<symbol id="icon-burger-close" viewBox="0 0 20 20">
<path d="M10 8.586l-7.071-7.071-1.414 1.414 7.071 7.071-7.071 7.071 1.414 1.414 7.071-7.071 7.071 7.071 1.414-1.414-7.071-7.071 7.071-7.071-1.414-1.414-7.071 7.071z"></path>
</symbol>

</defs>
</svg>
