<svg xmlns="http://www.w3.org/2000/svg" aria-hidden="true" style="position:absolute;width:0;height:0" overflow="hidden">
  <defs>

<symbol id="icon-logo" viewBox="0 0 29 32">
<path d="M12.3 1.402c0.454 0.699 1.116 1.090 1.923 1.14v1.739c0 0.135 0.117 0.245 0.262 0.245s0.263-0.11 0.263-0.245v-1.741c0.795-0.057 1.448-0.447 1.897-1.138 0.21-0.32 0.369-0.695 0.456-1.096l0.004-0.022c0.024-0.133-0.073-0.259-0.215-0.281s-0.278 0.068-0.302 0.201c-0.003 0.018-0.322 1.703-1.84 1.843v-0.605c0-0.135-0.117-0.244-0.263-0.244s-0.262 0.11-0.262 0.245v0.608c-1.533-0.121-1.853-1.774-1.867-1.847-0.024-0.133-0.159-0.223-0.302-0.2s-0.24 0.148-0.216 0.281c0.004 0.023 0.104 0.568 0.461 1.117zM15.342 12.957v1.321c0 0.135 0.117 0.245 0.263 0.245s0.262-0.11 0.262-0.245v-1.321c0-0.135-0.117-0.245-0.262-0.245s-0.263 0.11-0.263 0.245zM16.658 13.395v1.321c0 0.135 0.117 0.245 0.263 0.245s0.262-0.11 0.262-0.245v-1.321c0-0.135-0.117-0.245-0.262-0.245s-0.263 0.11-0.263 0.245zM17.973 13.395v1.321c0 0.135 0.117 0.245 0.263 0.245s0.262-0.11 0.262-0.245v-1.321c0-0.135-0.117-0.245-0.262-0.245s-0.263 0.11-0.263 0.245zM10.169 14.716v-1.321c0-0.135-0.117-0.245-0.262-0.245s-0.263 0.11-0.263 0.245v1.321c0 0.135 0.117 0.245 0.263 0.245s0.262-0.11 0.262-0.245zM11.484 14.716v-1.321c0-0.135-0.117-0.245-0.262-0.245s-0.263 0.11-0.263 0.245v1.321c0 0.135 0.117 0.245 0.263 0.245s0.262-0.11 0.262-0.245zM12.799 14.716v-1.321c0-0.135-0.117-0.245-0.262-0.245s-0.263 0.11-0.263 0.245v1.321c0 0.135 0.117 0.245 0.263 0.245s0.262-0.11 0.262-0.245z"></path>
<path d="M23.065 24.195v-6.556h-2.913v0.956h-0.669v-3.649l-4.49 0.025v-2.241l4.345-0.009c0.145-0.001 0.263-0.11 0.262-0.245s-0.117-0.244-0.263-0.244h-0l-4.344 0.009v-4.741l1.232-2.24h-1.899c-0.023 0-0.046 0.003-0.068 0.009l0.002-0c-0.020-0.005-0.042-0.008-0.065-0.009h-1.898l1.232 2.24v4.741l-4.345-0.009c-0.145 0-0.262 0.11-0.263 0.244s0.117 0.245 0.262 0.245l4.345 0.009v2.241l-4.49-0.025v3.649h-0.668v-0.956h-2.913v6.556h-5.457v4.599h10.548v0.318c0 0.135 0.117 0.245 0.263 0.245s0.262-0.11 0.262-0.245v-3.523c0-0.135-0.117-0.245-0.262-0.245s-0.263 0.11-0.263 0.245v1.52l-8.092 0.056-1.713-2.481h11.374l-0.656 1.223h5.599l-0.656-1.223h11.375l-1.707 2.472-8.282-0.050v-1.615c0-0.135-0.117-0.245-0.263-0.245s-0.262 0.11-0.262 0.245v3.523c0 0.135 0.117 0.245 0.262 0.245s0.263-0.11 0.263-0.245v-0.221h10.731v-4.599zM14.326 22.874h-0.274v-15.217h0.142c0.023-0 0.046-0.003 0.068-0.009l-0.002 0q0.032 0.008 0.066 0.009h0.142v15.217zM14.195 5.749c0.023-0 0.046-0.003 0.068-0.009l-0.002 0q0.032 0.008 0.066 0.009h1.040l-0.78 1.419h-0.259c-0.023 0-0.046 0.003-0.068 0.009l0.002-0c-0.020-0.005-0.042-0.008-0.065-0.009h-0.259l-0.78-1.419zM10.548 28.305h-7.896v-0.652l7.896-0.053zM2.127 28.305h-1.603v-3.033l1.603 2.322zM7.189 24.195v-5.040c0-0.135-0.117-0.245-0.263-0.245s-0.262 0.11-0.262 0.245v5.040h-0.684v-6.067h1.864v6.067zM8.37 24.195v-5.111h0.668v5.111zM9.564 15.439l3.964 0.022v7.413h-0.44l-0.708 1.321h-0.152v-7.633c0-0.135-0.117-0.245-0.262-0.245s-0.263 0.11-0.263 0.245v7.633h-0.96v-7.633c0-0.135-0.117-0.245-0.263-0.245s-0.262 0.11-0.262 0.245v7.633h-0.655zM14.326 25.419h-1.937l1.102-2.055h1.539l1.102 2.055zM18.303 24.195v-7.633c0-0.135-0.118-0.245-0.263-0.245s-0.262 0.11-0.262 0.245v7.633h-0.96v-7.633c0-0.135-0.118-0.245-0.263-0.245s-0.263 0.11-0.263 0.245v7.633h-0.152l-0.708-1.321h-0.44v-7.413l3.965-0.023v8.757zM19.482 24.195v-5.111h0.669v5.111zM20.676 18.129h1.864v6.067h-0.683v-5.040c0-0.135-0.118-0.245-0.263-0.245s-0.262 0.11-0.262 0.245v5.040h-0.656zM17.79 27.596l8.079 0.048v0.661h-8.079zM26.394 28.305v-0.711l1.603-2.322v3.033z"></path>
<path d="M14.403 4.822c-0.023 0-0.046 0.003-0.068 0.009l0.002-0c-0.020-0.005-0.042-0.008-0.065-0.009h-0.419c-0.145 0-0.263 0.11-0.263 0.245s0.117 0.245 0.263 0.245h0.419c0.023-0 0.046-0.003 0.068-0.009l-0.002 0q0.032 0.008 0.066 0.009h0.419c0.145 0 0.263-0.11 0.263-0.245s-0.118-0.245-0.263-0.245zM14.176 26.74c-0.807 0-1.464 0.612-1.464 1.365v3.238c0 0.135 0.117 0.245 0.263 0.245s0.262-0.11 0.262-0.245v-3.237c0-0.483 0.421-0.876 0.939-0.876s0.939 0.393 0.939 0.876v3.237c0 0.135 0.117 0.245 0.262 0.245s0.263-0.11 0.263-0.245v-3.237c0-0.753-0.657-1.365-1.464-1.365zM11.66 26.301c-0.145 0-0.263 0.11-0.263 0.245v3.523c0 0.135 0.117 0.245 0.263 0.245s0.262-0.11 0.262-0.245v-3.523c0-0.135-0.117-0.245-0.262-0.245zM16.482 26.301c-0.145 0-0.263 0.11-0.263 0.245v3.523c0 0.135 0.117 0.245 0.263 0.245s0.262-0.11 0.262-0.245v-3.523c0-0.135-0.117-0.245-0.262-0.245z"></path>
</symbol>

<symbol id="icon-phone" viewBox="0 0 32 32">
<path d="M15.599 0c-8.602 0-15.599 6.997-15.599 15.599s6.997 15.599 15.599 15.599c0.531 0 0.961-0.43 0.961-0.961s-0.43-0.961-0.961-0.961v0c-7.541 0-13.675-6.136-13.675-13.676 0-7.541 6.133-13.677 13.675-13.677 7.54 0 13.673 6.136 13.673 13.677 0 3.151-1.677 6.276-4.077 7.597-0.816 0.455-1.79 0.724-2.826 0.728h-0.001c0.606-0.361 1.129-0.847 1.519-1.463 0.077-0.115 0.178-0.216 0.228-0.344 0.313-0.753 0.341-1.607 0.53-2.402 0.232-1.018-4.448-3.001-4.856-1.733-0.147 0.471-0.372 1.956-0.667 2.347-0.263 0.35-0.91 0.185-1.316-0.16-1.067-0.909-2.258-2.246-3.302-3.302h0.002l-0.178-0.175c-1.055-1.043-2.393-2.233-3.301-3.302-0.344-0.405-0.51-1.051-0.161-1.316 0.391-0.296 1.879-0.518 2.348-0.666 1.267-0.405-0.716-5.089-1.734-4.856-0.794 0.187-1.65 0.216-2.404 0.527-0.128 0.053-0.228 0.154-0.344 0.23-2.673 1.695-3.017 5.809-0.408 8.873 0.994 1.173 2.031 2.308 3.099 3.416l-0.006 0.004q0.044 0.044 0.091 0.087l0.083 0.090 0.006-0.006c1.108 1.068 2.421 2.641 4.555 4.065 4.492 2.999 7.938 2.162 9.97 1.048 3.505-1.929 5.073-6.053 5.073-9.282 0.001-8.608-6.996-15.605-15.598-15.605z"></path>
</symbol>

<symbol id="icon-search" viewBox="0 0 24 24">
<path d="M16.041 15.856c-0.034 0.026-0.067 0.055-0.099 0.087s-0.060 0.064-0.087 0.099c-1.258 1.213-2.969 1.958-4.855 1.958-1.933 0-3.682-0.782-4.95-2.050s-2.050-3.017-2.050-4.95 0.782-3.682 2.050-4.95 3.017-2.050 4.95-2.050 3.682 0.782 4.95 2.050 2.050 3.017 2.050 4.95c0 1.886-0.745 3.597-1.959 4.856zM21.707 20.293l-3.675-3.675c1.231-1.54 1.968-3.493 1.968-5.618 0-2.485-1.008-4.736-2.636-6.364s-3.879-2.636-6.364-2.636-4.736 1.008-6.364 2.636-2.636 3.879-2.636 6.364 1.008 4.736 2.636 6.364 3.879 2.636 6.364 2.636c2.125 0 4.078-0.737 5.618-1.968l3.675 3.675c0.391 0.391 1.024 0.391 1.414 0s0.391-1.024 0-1.414z"></path>
</symbol>

<symbol id="icon-burger-close" viewBox="0 0 32 32">
<path fill="none" stroke="#fff" style="stroke: var(--color1, #fff)" stroke-linejoin="round" stroke-linecap="round" stroke-miterlimit="4" stroke-width="0.9143" d="M31.543 0.457l-31.086 31.086M0.457 0.457l31.086 31.086"></path>
</symbol>

<symbol id="icon-menu-burger" viewBox="0 0 32 32">
<path d="M29.333 24.007c0 0.733-0.595 1.327-1.327 1.327h-10.68c-0.733 0-1.327-0.594-1.327-1.327s0.594-1.327 1.327-1.327h10.68c0.733 0 1.327 0.593 1.327 1.327zM29.333 16c0 0.733-0.595 1.327-1.327 1.327h-24.013c-0.733 0-1.327-0.594-1.327-1.327s0.594-1.327 1.327-1.327h24.013c0.733 0 1.327 0.595 1.327 1.327zM28.007 9.32c0.733 0 1.327-0.594 1.327-1.327s-0.594-1.327-1.327-1.327h-16.013c-0.733 0-1.327 0.594-1.327 1.327s0.594 1.327 1.327 1.327h16.013z"></path>
</symbol>

<symbol id="icon-arrow" viewBox="0 0 32 32">
<path d="M8.671 32c-0 0-0 0-0 0-0.35 0-0.633-0.284-0.633-0.633 0-0.175 0.071-0.333 0.186-0.448l14.166-14.167c0.192-0.193 0.31-0.459 0.31-0.752s-0.118-0.559-0.31-0.752l-14.166-14.166c-0.115-0.115-0.185-0.273-0.185-0.448 0-0.35 0.284-0.633 0.633-0.633 0.175 0 0.333 0.071 0.448 0.186l14.165 14.166c0.421 0.422 0.681 1.005 0.681 1.648s-0.26 1.226-0.681 1.648l-14.166 14.167c-0.115 0.114-0.273 0.185-0.447 0.185v0z"></path>
</symbol>


</defs>
</svg>
