<svg xmlns="http://www.w3.org/2000/svg" aria-hidden="true" style="position:absolute;width:0;height:0" overflow="hidden">
  <defs>

<symbol id="icon-logo" viewBox="0 0 29 32">
<path d="M12.3 1.402c0.454 0.699 1.116 1.090 1.923 1.14v1.739c0 0.135 0.117 0.245 0.262 0.245s0.263-0.11 0.263-0.245v-1.741c0.795-0.057 1.448-0.447 1.897-1.138 0.21-0.32 0.369-0.695 0.456-1.096l0.004-0.022c0.024-0.133-0.073-0.259-0.215-0.281s-0.278 0.068-0.302 0.201c-0.003 0.018-0.322 1.703-1.84 1.843v-0.605c0-0.135-0.117-0.244-0.263-0.244s-0.262 0.11-0.262 0.245v0.608c-1.533-0.121-1.853-1.774-1.867-1.847-0.024-0.133-0.159-0.223-0.302-0.2s-0.24 0.148-0.216 0.281c0.004 0.023 0.104 0.568 0.461 1.117zM15.342 12.957v1.321c0 0.135 0.117 0.245 0.263 0.245s0.262-0.11 0.262-0.245v-1.321c0-0.135-0.117-0.245-0.262-0.245s-0.263 0.11-0.263 0.245zM16.658 13.395v1.321c0 0.135 0.117 0.245 0.263 0.245s0.262-0.11 0.262-0.245v-1.321c0-0.135-0.117-0.245-0.262-0.245s-0.263 0.11-0.263 0.245zM17.973 13.395v1.321c0 0.135 0.117 0.245 0.263 0.245s0.262-0.11 0.262-0.245v-1.321c0-0.135-0.117-0.245-0.262-0.245s-0.263 0.11-0.263 0.245zM10.169 14.716v-1.321c0-0.135-0.117-0.245-0.262-0.245s-0.263 0.11-0.263 0.245v1.321c0 0.135 0.117 0.245 0.263 0.245s0.262-0.11 0.262-0.245zM11.484 14.716v-1.321c0-0.135-0.117-0.245-0.262-0.245s-0.263 0.11-0.263 0.245v1.321c0 0.135 0.117 0.245 0.263 0.245s0.262-0.11 0.262-0.245zM12.799 14.716v-1.321c0-0.135-0.117-0.245-0.262-0.245s-0.263 0.11-0.263 0.245v1.321c0 0.135 0.117 0.245 0.263 0.245s0.262-0.11 0.262-0.245z"></path>
<path d="M23.065 24.195v-6.556h-2.913v0.956h-0.669v-3.649l-4.49 0.025v-2.241l4.345-0.009c0.145-0.001 0.263-0.11 0.262-0.245s-0.117-0.244-0.263-0.244h-0l-4.344 0.009v-4.741l1.232-2.24h-1.899c-0.023 0-0.046 0.003-0.068 0.009l0.002-0c-0.020-0.005-0.042-0.008-0.065-0.009h-1.898l1.232 2.24v4.741l-4.345-0.009c-0.145 0-0.262 0.11-0.263 0.244s0.117 0.245 0.262 0.245l4.345 0.009v2.241l-4.49-0.025v3.649h-0.668v-0.956h-2.913v6.556h-5.457v4.599h10.548v0.318c0 0.135 0.117 0.245 0.263 0.245s0.262-0.11 0.262-0.245v-3.523c0-0.135-0.117-0.245-0.262-0.245s-0.263 0.11-0.263 0.245v1.52l-8.092 0.056-1.713-2.481h11.374l-0.656 1.223h5.599l-0.656-1.223h11.375l-1.707 2.472-8.282-0.050v-1.615c0-0.135-0.117-0.245-0.263-0.245s-0.262 0.11-0.262 0.245v3.523c0 0.135 0.117 0.245 0.262 0.245s0.263-0.11 0.263-0.245v-0.221h10.731v-4.599zM14.326 22.874h-0.274v-15.217h0.142c0.023-0 0.046-0.003 0.068-0.009l-0.002 0q0.032 0.008 0.066 0.009h0.142v15.217zM14.195 5.749c0.023-0 0.046-0.003 0.068-0.009l-0.002 0q0.032 0.008 0.066 0.009h1.040l-0.78 1.419h-0.259c-0.023 0-0.046 0.003-0.068 0.009l0.002-0c-0.020-0.005-0.042-0.008-0.065-0.009h-0.259l-0.78-1.419zM10.548 28.305h-7.896v-0.652l7.896-0.053zM2.127 28.305h-1.603v-3.033l1.603 2.322zM7.189 24.195v-5.040c0-0.135-0.117-0.245-0.263-0.245s-0.262 0.11-0.262 0.245v5.040h-0.684v-6.067h1.864v6.067zM8.37 24.195v-5.111h0.668v5.111zM9.564 15.439l3.964 0.022v7.413h-0.44l-0.708 1.321h-0.152v-7.633c0-0.135-0.117-0.245-0.262-0.245s-0.263 0.11-0.263 0.245v7.633h-0.96v-7.633c0-0.135-0.117-0.245-0.263-0.245s-0.262 0.11-0.262 0.245v7.633h-0.655zM14.326 25.419h-1.937l1.102-2.055h1.539l1.102 2.055zM18.303 24.195v-7.633c0-0.135-0.118-0.245-0.263-0.245s-0.262 0.11-0.262 0.245v7.633h-0.96v-7.633c0-0.135-0.118-0.245-0.263-0.245s-0.263 0.11-0.263 0.245v7.633h-0.152l-0.708-1.321h-0.44v-7.413l3.965-0.023v8.757zM19.482 24.195v-5.111h0.669v5.111zM20.676 18.129h1.864v6.067h-0.683v-5.040c0-0.135-0.118-0.245-0.263-0.245s-0.262 0.11-0.262 0.245v5.040h-0.656zM17.79 27.596l8.079 0.048v0.661h-8.079zM26.394 28.305v-0.711l1.603-2.322v3.033z"></path>
<path d="M14.403 4.822c-0.023 0-0.046 0.003-0.068 0.009l0.002-0c-0.020-0.005-0.042-0.008-0.065-0.009h-0.419c-0.145 0-0.263 0.11-0.263 0.245s0.117 0.245 0.263 0.245h0.419c0.023-0 0.046-0.003 0.068-0.009l-0.002 0q0.032 0.008 0.066 0.009h0.419c0.145 0 0.263-0.11 0.263-0.245s-0.118-0.245-0.263-0.245zM14.176 26.74c-0.807 0-1.464 0.612-1.464 1.365v3.238c0 0.135 0.117 0.245 0.263 0.245s0.262-0.11 0.262-0.245v-3.237c0-0.483 0.421-0.876 0.939-0.876s0.939 0.393 0.939 0.876v3.237c0 0.135 0.117 0.245 0.262 0.245s0.263-0.11 0.263-0.245v-3.237c0-0.753-0.657-1.365-1.464-1.365zM11.66 26.301c-0.145 0-0.263 0.11-0.263 0.245v3.523c0 0.135 0.117 0.245 0.263 0.245s0.262-0.11 0.262-0.245v-3.523c0-0.135-0.117-0.245-0.262-0.245zM16.482 26.301c-0.145 0-0.263 0.11-0.263 0.245v3.523c0 0.135 0.117 0.245 0.263 0.245s0.262-0.11 0.262-0.245v-3.523c0-0.135-0.117-0.245-0.262-0.245z"></path>
</symbol>

<symbol id="icon-phone" viewBox="0 0 32 32">
<path d="M15.599 0c-8.602 0-15.599 6.997-15.599 15.599s6.997 15.599 15.599 15.599c0.531 0 0.961-0.43 0.961-0.961s-0.43-0.961-0.961-0.961v0c-7.541 0-13.675-6.136-13.675-13.676 0-7.541 6.133-13.677 13.675-13.677 7.54 0 13.673 6.136 13.673 13.677 0 3.151-1.677 6.276-4.077 7.597-0.816 0.455-1.79 0.724-2.826 0.728h-0.001c0.606-0.361 1.129-0.847 1.519-1.463 0.077-0.115 0.178-0.216 0.228-0.344 0.313-0.753 0.341-1.607 0.53-2.402 0.232-1.018-4.448-3.001-4.856-1.733-0.147 0.471-0.372 1.956-0.667 2.347-0.263 0.35-0.91 0.185-1.316-0.16-1.067-0.909-2.258-2.246-3.302-3.302h0.002l-0.178-0.175c-1.055-1.043-2.393-2.233-3.301-3.302-0.344-0.405-0.51-1.051-0.161-1.316 0.391-0.296 1.879-0.518 2.348-0.666 1.267-0.405-0.716-5.089-1.734-4.856-0.794 0.187-1.65 0.216-2.404 0.527-0.128 0.053-0.228 0.154-0.344 0.23-2.673 1.695-3.017 5.809-0.408 8.873 0.994 1.173 2.031 2.308 3.099 3.416l-0.006 0.004q0.044 0.044 0.091 0.087l0.083 0.090 0.006-0.006c1.108 1.068 2.421 2.641 4.555 4.065 4.492 2.999 7.938 2.162 9.97 1.048 3.505-1.929 5.073-6.053 5.073-9.282 0.001-8.608-6.996-15.605-15.598-15.605z"></path>
</symbol>

<symbol id="icon-search" viewBox="0 0 24 24">
<path d="M16.041 15.856c-0.034 0.026-0.067 0.055-0.099 0.087s-0.060 0.064-0.087 0.099c-1.258 1.213-2.969 1.958-4.855 1.958-1.933 0-3.682-0.782-4.95-2.050s-2.050-3.017-2.050-4.95 0.782-3.682 2.050-4.95 3.017-2.050 4.95-2.050 3.682 0.782 4.95 2.050 2.050 3.017 2.050 4.95c0 1.886-0.745 3.597-1.959 4.856zM21.707 20.293l-3.675-3.675c1.231-1.54 1.968-3.493 1.968-5.618 0-2.485-1.008-4.736-2.636-6.364s-3.879-2.636-6.364-2.636-4.736 1.008-6.364 2.636-2.636 3.879-2.636 6.364 1.008 4.736 2.636 6.364 3.879 2.636 6.364 2.636c2.125 0 4.078-0.737 5.618-1.968l3.675 3.675c0.391 0.391 1.024 0.391 1.414 0s0.391-1.024 0-1.414z"></path>
</symbol>

<symbol id="icon-burger-close" viewBox="0 0 32 32">
<path fill="none" stroke="#fff" style="stroke: var(--color1, #fff)" stroke-linejoin="round" stroke-linecap="round" stroke-miterlimit="4" stroke-width="0.9143" d="M31.543 0.457l-31.086 31.086M0.457 0.457l31.086 31.086"></path>
</symbol>

<symbol id="icon-menu-burger" viewBox="0 0 32 32">
<path d="M29.333 24.007c0 0.733-0.595 1.327-1.327 1.327h-10.68c-0.733 0-1.327-0.594-1.327-1.327s0.594-1.327 1.327-1.327h10.68c0.733 0 1.327 0.593 1.327 1.327zM29.333 16c0 0.733-0.595 1.327-1.327 1.327h-24.013c-0.733 0-1.327-0.594-1.327-1.327s0.594-1.327 1.327-1.327h24.013c0.733 0 1.327 0.595 1.327 1.327zM28.007 9.32c0.733 0 1.327-0.594 1.327-1.327s-0.594-1.327-1.327-1.327h-16.013c-0.733 0-1.327 0.594-1.327 1.327s0.594 1.327 1.327 1.327h16.013z" ></path>
</symbol>

<symbol id="icon-arrow" viewBox="0 0 32 32">
<path d="M8.671 32c-0 0-0 0-0 0-0.35 0-0.633-0.284-0.633-0.633 0-0.175 0.071-0.333 0.186-0.448l14.166-14.167c0.192-0.193 0.31-0.459 0.31-0.752s-0.118-0.559-0.31-0.752l-14.166-14.166c-0.115-0.115-0.185-0.273-0.185-0.448 0-0.35 0.284-0.633 0.633-0.633 0.175 0 0.333 0.071 0.448 0.186l14.165 14.166c0.421 0.422 0.681 1.005 0.681 1.648s-0.26 1.226-0.681 1.648l-14.166 14.167c-0.115 0.114-0.273 0.185-0.447 0.185v0z"></path>
</symbol>

<symbol id="icon-benefits-wheel" viewBox="0 0 26 32">
<path d="M14.888 12.852c0-0.009 0-0.020 0-0.030 0-1.124-0.911-2.035-2.035-2.035s-2.035 0.911-2.035 2.035c0 0.011 0 0.021 0 0.032l-0-0.002c0.024 1.106 0.926 1.993 2.035 1.993s2.011-0.887 2.035-1.99l0-0.002zM11.834 12.852c0-0.562 0.456-1.018 1.018-1.018s1.018 0.456 1.018 1.018v0c0 0.562-0.456 1.018-1.018 1.018s-1.018-0.456-1.018-1.018v0z"></path>
<path d="M22.899 30.532h-2.706l-3.33-8.514c0.858-0.389 1.598-0.851 2.268-1.396l-0.019 0.015c0 0.002 0 0.004 0 0.005 0 0.42 0.171 0.8 0.446 1.075l0 0c0.276 0.276 0.657 0.446 1.078 0.446 0.843 0 1.526-0.683 1.526-1.526s-0.683-1.525-1.525-1.526h-0.001c1.187-1.454 1.982-3.271 2.201-5.261l0.004-0.045c0.276 0.275 0.657 0.445 1.077 0.445 0.843 0 1.527-0.684 1.527-1.527s-0.684-1.527-1.527-1.527c-0.42 0-0.801 0.17-1.077 0.445l0-0c-0.222-2.036-1.017-3.853-2.218-5.325l0.014 0.018h0c0.84-0.005 1.52-0.687 1.52-1.528 0-0.735-0.519-1.349-1.211-1.495l-0.010-0.002c-0.089-0.019-0.192-0.029-0.297-0.029-0.843 0-1.527 0.684-1.527 1.527 0 0.001 0 0.002 0 0.002v-0c-1.454-1.187-3.271-1.983-5.262-2.201l-0.045-0.004c0.274-0.276 0.444-0.656 0.444-1.076 0-0.843-0.683-1.527-1.527-1.527s-1.527 0.683-1.527 1.527c0 0.42 0.17 0.801 0.444 1.077l-0-0c-2.036 0.223-3.853 1.018-5.326 2.22l0.018-0.014c0-0.002 0-0.004 0-0.006 0-0.42-0.171-0.8-0.446-1.075l-0-0c-0.276-0.276-0.658-0.447-1.079-0.447-0.843 0-1.527 0.683-1.527 1.527s0.683 1.527 1.527 1.527h0.001c-1.187 1.454-1.982 3.271-2.2 5.262l-0.004 0.045c-0.276-0.274-0.656-0.444-1.076-0.444-0.843 0-1.527 0.683-1.527 1.527s0.683 1.527 1.527 1.527c0.42 0 0.801-0.17 1.077-0.444l-0 0c0.222 2.036 1.017 3.852 2.218 5.325l-0.014-0.018h-0.001c-0 0-0.001 0-0.001 0-0.844 0-1.527 0.684-1.527 1.527s0.684 1.527 1.527 1.527c0.844 0 1.527-0.684 1.527-1.527 0-0.001 0-0.002 0-0.002v0c0.636 0.518 1.358 0.972 2.132 1.331l0.063 0.026-3.34 8.538h-2.643c-0.272 0.012-0.488 0.235-0.488 0.509s0.216 0.497 0.487 0.509l0.001 0h6.106c0.281 0 0.509-0.228 0.509-0.509s-0.228-0.509-0.509-0.509h-2.371l3.193-8.165c0.703 0.237 1.429 0.397 2.167 0.474-0.274 0.276-0.444 0.656-0.444 1.076 0 0.843 0.683 1.527 1.527 1.527s1.527-0.683 1.527-1.527c0-0.42-0.17-0.801-0.444-1.077l0 0c0.784-0.085 1.499-0.245 2.181-0.476l-0.071 0.021 3.186 8.146h-2.308c-0.272 0.012-0.488 0.235-0.488 0.509s0.216 0.497 0.487 0.509l0.001 0h6.106c0.281 0 0.509-0.228 0.509-0.509s-0.228-0.509-0.509-0.509v0zM10.178 12.722c0-1.405 1.139-2.544 2.544-2.544s2.544 1.139 2.544 2.544c0 1.405-1.139 2.544-2.544 2.544v0c-1.405-0.001-2.543-1.14-2.544-2.544v-0zM5.9 18.826c-1.34-1.487-2.199-3.43-2.321-5.57l-0.001-0.024h5.62c0.091 0.619 0.33 1.17 0.679 1.632l-0.006-0.009zM15.574 14.855c0.343-0.453 0.582-1.004 0.671-1.604l0.002-0.019h5.62c-0.123 2.165-0.982 4.108-2.329 5.603l0.007-0.008zM16.247 12.214c-0.091-0.619-0.33-1.169-0.68-1.631l0.006 0.009 3.972-3.972c1.34 1.487 2.199 3.43 2.32 5.57l0.001 0.024zM14.855 9.871c-0.454-0.343-1.004-0.582-1.604-0.671l-0.019-0.002v-5.621c2.165 0.123 4.108 0.982 5.603 2.329l-0.008-0.007zM12.214 9.198c-0.619 0.091-1.17 0.33-1.632 0.679l0.009-0.006-3.971-3.971c1.487-1.34 3.43-2.199 5.57-2.321l0.024-0.001zM9.871 10.591c-0.343 0.453-0.582 1.004-0.671 1.604l-0.002 0.019h-5.62c0.123-2.164 0.982-4.107 2.329-5.602l-0.007 0.008zM14.855 15.574l3.971 3.972c-0.67 0.602-1.439 1.112-2.276 1.5l-0.057 0.024-2.046-5.231q0.213-0.118 0.408-0.264zM20.998 20.279c0.1 0.093 0.163 0.226 0.163 0.373 0 0.281-0.228 0.509-0.509 0.509-0.147 0-0.28-0.062-0.373-0.162l-0-0c-0.084-0.091-0.136-0.213-0.136-0.347 0-0.281 0.228-0.509 0.509-0.509 0.134 0 0.256 0.052 0.347 0.137l-0-0zM23.917 12.214c0.281 0 0.509 0.228 0.509 0.509s-0.228 0.509-0.509 0.509v0c-0.281 0-0.509-0.228-0.509-0.509s0.228-0.509 0.509-0.509v0zM20.278 4.447c0.092-0.092 0.219-0.149 0.36-0.149 0.281 0 0.509 0.228 0.509 0.509 0 0.141-0.057 0.268-0.149 0.36v0c-0.092 0.092-0.219 0.149-0.36 0.149-0.281 0-0.509-0.228-0.509-0.509 0-0.141 0.057-0.268 0.149-0.36v0zM12.722 1.019c0.281 0 0.509 0.228 0.509 0.509s-0.228 0.509-0.509 0.509v0c-0.281 0-0.509-0.228-0.509-0.509s0.228-0.509 0.509-0.509v0zM4.447 5.166c-0.102-0.093-0.166-0.227-0.166-0.376 0-0.281 0.228-0.509 0.509-0.509 0.149 0 0.282 0.064 0.375 0.165l0 0c0.084 0.091 0.136 0.213 0.136 0.347 0 0.281-0.228 0.509-0.509 0.509-0.134 0-0.256-0.052-0.347-0.137l0 0zM1.528 13.231c-0.004 0-0.010 0-0.015 0-0.281 0-0.509-0.228-0.509-0.509s0.228-0.509 0.509-0.509c0.005 0 0.011 0 0.016 0l-0.001-0c0.274 0.008 0.494 0.233 0.494 0.509s-0.219 0.5-0.493 0.509l-0.001 0zM5.166 20.998c-0.093 0.098-0.224 0.159-0.369 0.159-0.281 0-0.509-0.228-0.509-0.509 0-0.145 0.061-0.277 0.159-0.369l0-0c0.091-0.086 0.215-0.14 0.35-0.14 0.281 0 0.509 0.228 0.509 0.509 0 0.136-0.053 0.259-0.14 0.351l0-0zM6.619 19.545l3.971-3.972q0.172 0.128 0.357 0.234l-2.048 5.235c-0.873-0.408-1.624-0.91-2.288-1.506l0.008 0.007zM11.892 16.185q0.158 0.038 0.322 0.062v5.62c-0.862-0.048-1.67-0.209-2.433-0.468l0.064 0.019zM12.722 24.425c-0.281 0-0.509-0.228-0.509-0.509s0.228-0.509 0.509-0.509v0c0.281 0 0.509 0.228 0.509 0.509s-0.228 0.509-0.509 0.509v0zM13.231 21.866v-5.619q0.133-0.019 0.263-0.048l2.048 5.237c-0.682 0.229-1.47 0.384-2.288 0.43l-0.024 0.001zM24.905 30.648h-0.509c-0.281 0-0.509 0.228-0.509 0.509s0.228 0.509 0.509 0.509h0.509c0.272-0.012 0.488-0.235 0.488-0.509s-0.216-0.497-0.487-0.509l-0.001-0z"></path>
</symbol>

<symbol id="icon-benefits-ways" viewBox="0 0 25 32">
<path d="M22.71 30.648h-1.017c-0.272 0.012-0.488 0.235-0.488 0.509s0.216 0.497 0.487 0.509l0.001 0h1.018c0.272-0.012 0.488-0.235 0.488-0.509s-0.216-0.497-0.487-0.509l-0.001-0zM8.849 8.113h-2.48c-0.272 0.012-0.488 0.235-0.488 0.509s0.216 0.497 0.487 0.509l0.001 0h2.481c0.272-0.012 0.488-0.235 0.488-0.509s-0.216-0.497-0.487-0.509l-0.001-0zM10.933 8.113h-0.508c-0.272 0.012-0.488 0.235-0.488 0.509s0.216 0.497 0.487 0.509l0.001 0h0.509c0.272-0.012 0.488-0.235 0.488-0.509s-0.216-0.497-0.487-0.509l-0.001-0zM8.849 19.38h-2.48c-0.272 0.012-0.488 0.235-0.488 0.509s0.216 0.497 0.487 0.509l0.001 0h2.481c0.272-0.012 0.488-0.235 0.488-0.509s-0.216-0.497-0.487-0.509l-0.001-0zM10.933 19.38h-0.508c-0.272 0.012-0.488 0.235-0.488 0.509s0.216 0.497 0.487 0.509l0.001 0h0.509c0.272-0.012 0.488-0.235 0.488-0.509s-0.216-0.497-0.487-0.509l-0.001-0z"></path>
<path d="M24.276 12.871l-2.035-2.036c-0.092-0.092-0.219-0.149-0.36-0.149-0 0-0 0-0 0h-6.615v-9.16c0-0.843-0.683-1.527-1.527-1.527s-1.527 0.683-1.527 1.527v4.071h-9.668c-0.14 0-0.268 0.057-0.36 0.149l-2.036 2.035c-0.092 0.092-0.149 0.219-0.149 0.36s0.057 0.268 0.149 0.36v0l2.035 2.035c0.092 0.092 0.219 0.149 0.36 0.149h9.668v6.107h-9.668c-0.14 0-0.268 0.057-0.36 0.149v0l-2.036 2.035c-0.092 0.092-0.149 0.219-0.149 0.36s0.057 0.268 0.149 0.36v0l2.035 2.035c0.092 0.092 0.219 0.149 0.36 0.149h9.668v6.615h-2.544c-0.281 0-0.509 0.228-0.509 0.509v1.527h-4.579c-0.272 0.012-0.488 0.235-0.488 0.509s0.216 0.497 0.487 0.509l0.001 0h15.265c0.281 0 0.509-0.228 0.509-0.509s-0.228-0.509-0.509-0.509h-1.527v-1.527c0-0.281-0.228-0.509-0.509-0.509h-2.544v-12.721h6.615c0 0 0 0 0 0 0.14 0 0.268-0.057 0.36-0.149v0l2.035-2.036c0.092-0.092 0.149-0.219 0.149-0.36s-0.057-0.268-0.149-0.36v0zM2.755 9.668l-1.527-1.527 1.527-1.527h9.458v3.054zM2.755 20.863l-1.527-1.527 1.527-1.527h9.458v3.053zM17.301 30.532h-7.123v-1.018h7.124zM13.23 28.496v-26.97c0-0.281 0.228-0.509 0.509-0.509s0.509 0.228 0.509 0.509v0 26.97zM21.67 14.757h-6.404v-3.053h6.404l1.527 1.527z"></path>
</symbol>

<symbol id="icon-benefits-house" viewBox="0 0 40 32">
<path d="M36.005 30.745h-1.895v-6.275h0.632c0.167 0 0.328-0.066 0.447-0.184s0.185-0.277 0.185-0.443v-1.883c0-0.166-0.067-0.326-0.185-0.443-0.115-0.113-0.272-0.184-0.447-0.184h-0.632v-6.275h0.632c0.167 0 0.328-0.066 0.447-0.184s0.185-0.277 0.185-0.443v-1.883c0-0.166-0.067-0.326-0.185-0.443-0.115-0.114-0.272-0.184-0.447-0.184h-7.58v-8.156h0.632c0.167 0 0.328-0.066 0.447-0.184s0.185-0.277 0.185-0.443v-2.51c0-0.166-0.066-0.326-0.185-0.444-0.115-0.114-0.272-0.184-0.447-0.184h-16.424c-0.168 0-0.328 0.066-0.447 0.184s-0.185 0.278-0.185 0.443v2.51c0 0.167 0.067 0.326 0.185 0.444s0.279 0.184 0.447 0.184h0.631v8.157h-7.579c-0.168 0-0.329 0.066-0.447 0.184s-0.185 0.277-0.185 0.444v1.883c0 0.166 0.066 0.326 0.185 0.443s0.279 0.184 0.447 0.184h0.632v6.275h-0.632c-0.167 0-0.328 0.066-0.447 0.184s-0.185 0.277-0.185 0.443v1.883c0 0.166 0.066 0.326 0.185 0.443s0.279 0.184 0.447 0.184h0.632v6.275h-4.421c-0.168 0-0.328 0.066-0.447 0.184-0.114 0.113-0.184 0.27-0.184 0.444s0.070 0.33 0.184 0.444l0 0c0.118 0.117 0.279 0.184 0.447 0.184h35.373c0.168 0 0.328-0.066 0.447-0.184 0.114-0.113 0.184-0.27 0.184-0.444s-0.070-0.33-0.184-0.444l-0-0c-0.115-0.113-0.272-0.184-0.447-0.184h-0zM34.11 23.216h-6.949v-0.628h6.949zM32.847 21.334h-5.685v-6.275h5.685zM34.11 13.176v0.628h-6.949v-0.628zM12.002 1.255h15.16v1.254h-15.16zM5.053 13.177h6.949v0.627h-6.949zM6.317 15.059h5.685v6.275h-5.686zM5.053 22.588h6.949v0.628h-6.949zM6.317 24.471h5.685v6.275h-5.686zM15.792 30.746v-7.529h3.158v7.529zM20.213 30.746v-7.529h3.159v7.529zM24.635 30.746v-8.157c0-0.166-0.067-0.326-0.185-0.443-0.115-0.114-0.272-0.184-0.447-0.184h-8.843c-0.167 0-0.328 0.066-0.447 0.184s-0.185 0.277-0.185 0.443v8.157h-1.263v-26.981h12.633v26.981zM27.162 30.746v-6.275h5.685v6.275zM38.749 30.629h-0.632c-0.168 0-0.328 0.066-0.447 0.184-0.114 0.113-0.184 0.27-0.184 0.444s0.070 0.33 0.184 0.444l0 0c0.118 0.117 0.279 0.184 0.447 0.184h0.631c0.168 0 0.328-0.066 0.447-0.184 0.114-0.113 0.184-0.27 0.184-0.444s-0.070-0.33-0.184-0.444l-0-0c-0.115-0.114-0.273-0.184-0.447-0.184-0 0-0 0-0 0v0z"></path>
<path d="M17.546 25.6c-0.168 0-0.328 0.066-0.447 0.184s-0.185 0.277-0.185 0.443v1.255c0 0.166 0.067 0.326 0.185 0.443 0.115 0.114 0.272 0.184 0.447 0.184s0.332-0.070 0.447-0.184l-0 0c0.118-0.117 0.185-0.277 0.185-0.443v-1.255c0-0.166-0.066-0.326-0.185-0.444-0.115-0.113-0.272-0.184-0.447-0.184h-0zM21.66 25.6c-0.168 0-0.328 0.066-0.447 0.184s-0.185 0.277-0.185 0.443v1.255c0 0.166 0.067 0.326 0.185 0.443 0.115 0.114 0.272 0.184 0.447 0.184s0.332-0.070 0.447-0.184l-0 0c0.118-0.117 0.185-0.277 0.185-0.443v-1.255c0-0.166-0.066-0.326-0.185-0.444-0.115-0.113-0.272-0.184-0.447-0.184h-0zM10.647 25.143h-3.158c-0.168 0-0.328 0.066-0.447 0.184s-0.185 0.277-0.185 0.443v3.765c0 0.166 0.067 0.326 0.185 0.443s0.279 0.184 0.447 0.184h3.158c0.167 0 0.328-0.066 0.447-0.184s0.185-0.277 0.185-0.443v-3.765c0-0.166-0.066-0.326-0.185-0.443-0.115-0.114-0.273-0.184-0.447-0.184-0 0-0 0-0 0v0zM10.016 28.907h-1.895v-2.51h1.895zM10.647 15.543h-3.158c-0.168 0-0.328 0.066-0.447 0.184s-0.185 0.277-0.185 0.443v3.765c0 0.166 0.067 0.326 0.185 0.443s0.279 0.184 0.447 0.184h3.158c0.167 0 0.328-0.066 0.447-0.184s0.185-0.277 0.185-0.443v-3.765c0-0.166-0.066-0.326-0.185-0.444-0.115-0.114-0.273-0.184-0.447-0.184-0 0-0 0-0 0v0zM10.016 19.307h-1.895v-2.51h1.895zM31.675 25.143h-3.158c-0.168 0-0.328 0.066-0.447 0.184s-0.185 0.277-0.185 0.443v3.765c0 0.166 0.067 0.326 0.185 0.443s0.279 0.184 0.447 0.184h3.158c0.167 0 0.328-0.066 0.447-0.184s0.185-0.277 0.185-0.443v-3.765c0-0.166-0.066-0.326-0.185-0.443-0.115-0.114-0.273-0.184-0.447-0.184-0 0-0 0-0 0v0zM31.044 28.907h-1.895v-2.51h1.895zM28.517 20.562h3.158c0.167 0 0.328-0.066 0.447-0.184s0.185-0.277 0.185-0.443v-3.765c0-0.166-0.066-0.326-0.185-0.444-0.115-0.114-0.273-0.184-0.447-0.184-0 0-0 0-0 0h-3.159c-0.167 0-0.328 0.066-0.446 0.184s-0.185 0.277-0.185 0.443v3.765c0 0.166 0.067 0.326 0.185 0.443s0.279 0.184 0.447 0.184zM29.149 16.798h1.895v2.51h-1.895zM24.103 16.457h-8.843c-0.168 0-0.328 0.066-0.447 0.184s-0.185 0.277-0.185 0.443v3.137c0 0.166 0.067 0.326 0.185 0.443s0.279 0.184 0.447 0.184h8.843c0.168 0 0.328-0.066 0.447-0.184s0.185-0.277 0.185-0.443v-3.137c0-0.166-0.066-0.326-0.185-0.444-0.115-0.114-0.273-0.184-0.447-0.184-0 0-0 0-0 0v0zM15.892 19.595v-1.883h3.158v1.883zM23.472 19.595h-3.158v-1.883h3.158zM24.103 10.514h-8.843c-0.168 0-0.328 0.066-0.447 0.184s-0.185 0.277-0.185 0.443v3.137c0 0.166 0.067 0.326 0.185 0.443s0.279 0.184 0.447 0.184h8.843c0.168 0 0.328-0.066 0.447-0.184s0.185-0.277 0.185-0.443v-3.138c0-0.166-0.066-0.326-0.185-0.443-0.115-0.114-0.273-0.184-0.447-0.184-0 0-0 0-0 0v0zM15.892 13.652v-1.883h3.158v1.883zM23.472 13.652h-3.158v-1.883h3.158zM24.103 5.029h-8.843c-0.168 0-0.328 0.066-0.447 0.184s-0.185 0.277-0.185 0.443v3.137c0 0.166 0.067 0.326 0.185 0.443s0.279 0.184 0.447 0.184h8.843c0.168 0 0.328-0.066 0.447-0.184s0.185-0.277 0.185-0.443v-3.137c0-0.166-0.066-0.326-0.185-0.444-0.115-0.114-0.273-0.184-0.447-0.184-0 0-0 0-0 0v0zM15.892 8.166v-1.883h3.158v1.883zM23.472 8.166h-3.158v-1.883h3.158z"></path>
</symbol>

<symbol id="icon-restaurants" viewBox="0 0 32 32">
<path d="M5.145 9.261v-1.029h1.845l3.089 3.089c-0.19 0.456-0.302 0.986-0.303 1.541v1.030h8.232v-1.030c0-1.104-0.434-2.138-1.203-2.905 0.107-0.21 0.173-0.444 0.173-0.696v-1.331l0.346 0.346c0.291 0.289 0.692 0.469 1.135 0.47h0c0.887-0.001 1.605-0.719 1.606-1.605v-0c0-0.429-0.167-0.832-0.47-1.135l-4.223-4.223c-0.462-0.465-1.102-0.753-1.81-0.753-0.003 0-0.007 0-0.010 0h-4.375l-3.087 1.029h-0.946v-1.030c-0.001-0.568-0.461-1.028-1.029-1.029h-3.087c-0.568 0-1.029 0.461-1.029 1.029v8.232c0 0.567 0.461 1.029 1.029 1.029h3.087c0.568-0 1.029-0.461 1.029-1.029v-0zM10.804 12.862c0-0.36 0.066-0.719 0.188-1.055 0.087 0.014 0.175 0.026 0.264 0.026 0.886-0.001 1.605-0.72 1.606-1.606v-0c0-0.088-0.011-0.175-0.025-0.261 0.315-0.118 0.679-0.186 1.059-0.186 0.033 0 0.065 0.001 0.097 0.002l-0.005-0c0.219 0.6 0.783 1.020 1.446 1.022h0c0.224 0 0.436-0.051 0.628-0.136 0.565 0.556 0.916 1.329 0.916 2.183 0 0.004 0 0.008-0 0.011v-0.001zM13.891 8.75c-0.554 0.005-1.081 0.117-1.562 0.317l0.028-0.010-1.899-1.898c-0.104-0.104-0.168-0.248-0.168-0.407 0-0.318 0.258-0.577 0.576-0.577h1.57c0.135 0 0.268 0.055 0.364 0.15l1.091 1.092zM6.258 3.087l3.086-1.030h4.209c0.413 0 0.801 0.161 1.092 0.452l4.223 4.223c0.098 0.103 0.158 0.243 0.158 0.397 0 0.319-0.259 0.577-0.577 0.577-0.154 0-0.293-0.060-0.397-0.158l-1.086-1.086c-0.031-0.374-0.193-0.706-0.439-0.954l-1.97-1.97c-0.277-0.279-0.662-0.452-1.086-0.452-0.002 0-0.003 0-0.005 0h-3.175v1.029h3.175c0.135 0 0.268 0.055 0.364 0.151l1.97 1.97c0.097 0.097 0.151 0.227 0.151 0.364v2.661c0 0.284-0.23 0.515-0.515 0.515s-0.515-0.23-0.515-0.515v0-2.271l-1.392-1.393c-0.277-0.279-0.662-0.452-1.086-0.452-0.002 0-0.004 0-0.005 0h-1.57c-0.886 0.001-1.604 0.719-1.606 1.605v0c0 0.429 0.167 0.832 0.47 1.136l1.933 1.933c0.098 0.103 0.158 0.243 0.158 0.397 0 0.319-0.258 0.577-0.577 0.577-0.154 0-0.293-0.060-0.397-0.158l-3.432-3.433h-2.271v-4.116zM1.029 1.029h1.029v1.543h1.029v-1.543h1.029v8.232h-1.029v-5.659h-1.029v5.659h-1.030zM12.469 16.109c-0.256 0.34-0.41 0.769-0.411 1.234v0c0.001 1.137 0.922 2.058 2.058 2.058h0c1.136-0.001 2.057-0.922 2.058-2.058v-0c-0.001-0.465-0.156-0.895-0.416-1.24l0.004 0.005-1.646-2.195zM15.145 17.343c-0 0.568-0.461 1.029-1.029 1.029h-0c-0.569-0-1.029-0.461-1.029-1.030 0-0.233 0.077-0.447 0.207-0.619l-0.002 0.003 0.824-1.097 0.823 1.097c0.133 0.177 0.206 0.396 0.206 0.617zM30.989 25.863c-0.417-0.259-0.705-0.484-0.934-0.728-1.003-1.067-2.817-1.643-4.015-1.643-0.966 0-2.325 0.38-3.344 1.084v-1.084c0.568-0.001 1.028-0.461 1.029-1.029v-1.030c-0.001-0.568-0.461-1.028-1.029-1.029h-17.493c-0.568 0.001-1.028 0.461-1.029 1.029v1.029c0 0.568 0.461 1.030 1.029 1.030v1.543c0 2.199 1.543 4.042 3.601 4.511v2.177h10.29v-2.178c0.567-0.132 1.068-0.351 1.514-0.645l-0.017 0.011c0.14 0.17 0.306 0.322 0.499 0.442 0.418 0.26 0.706 0.484 0.935 0.728 1.003 1.068 2.817 1.643 4.014 1.643s3.012-0.576 4.015-1.643c0.229-0.244 0.517-0.468 0.934-0.728 0.584-0.366 0.967-1.006 0.967-1.735 0-0.003 0-0.007-0-0.010v0.001c0-0.003 0-0.007 0-0.010 0-0.729-0.383-1.37-0.958-1.73l-0.009-0.005zM18.066 30.696h-8.232v-1.029h8.232zM18.066 28.638h-8.232c-1.985 0-3.601-1.615-3.601-3.602v-1.543h12.862v-1.029h-13.892v-1.030h17.493v1.030h-2.573v1.029h1.543v1.543q-0 0.228-0.027 0.449c-0.155 0.122-0.334 0.245-0.549 0.378-0.584 0.366-0.967 1.006-0.967 1.735 0 0.004 0 0.007 0 0.011v-0.001c0 0.122 0.014 0.24 0.034 0.357-0.581 0.42-1.307 0.672-2.093 0.672v0zM30.446 28.48c-0.334 0.208-0.767 0.497-1.142 0.896-0.775 0.826-2.269 1.319-3.264 1.319s-2.489-0.493-3.264-1.319c-0.375-0.399-0.807-0.689-1.143-0.897-0.29-0.183-0.48-0.502-0.48-0.866 0-0.002 0-0.004 0-0.005v0c0-0.358 0.18-0.684 0.481-0.871 0.334-0.208 0.767-0.498 1.142-0.897 0.775-0.826 2.269-1.319 3.265-1.319s2.489 0.493 3.264 1.319c0.376 0.399 0.808 0.69 1.143 0.897 0.291 0.183 0.481 0.502 0.481 0.866 0 0.002 0 0.003 0 0.005v-0c0 0.358-0.18 0.685-0.481 0.871z"></path>
<path d="M25.971 25.507v1.029c0.601 0 1.488 0.375 1.765 0.669 0.264 0.278 0.547 0.531 0.851 0.759l0.017 0.012 0.616-0.824c-0.272-0.203-0.512-0.417-0.732-0.65l-0.003-0.003c-0.498-0.529-1.673-0.993-2.515-0.993z"></path>
</symbol>

<symbol id="icon-cuisines" viewBox="0 0 34 32">
<path d="M32.991 16.174h-1.196c-0.119-1.918-0.594-3.697-1.359-5.313l0.037 0.088c-0.081-0.178-0.256-0.299-0.461-0.299-0.278 0-0.504 0.226-0.504 0.504 0 0.080 0.019 0.156 0.052 0.223l-0.001-0.003c0.669 1.403 1.109 3.037 1.224 4.759l0.002 0.041h-23.091c-0.278 0-0.504 0.226-0.504 0.504s0.226 0.504 0.504 0.504v0h25.298c0.255 0 0.462 0.207 0.462 0.463 0 0 0 0 0 0v0 0.615c0 0.255-0.207 0.462-0.462 0.463h-31.521c-0.255-0-0.462-0.207-0.462-0.463 0 0 0 0 0 0v0-0.615c0-0.255 0.207-0.463 0.462-0.463h3.873c0.005 0 0.010 0 0.016 0 0.278 0 0.504-0.226 0.504-0.504s-0.226-0.504-0.504-0.504c-0.006 0-0.011 0-0.017 0l0.001-0h-1.666c0.223-3.349 1.659-6.464 4.079-8.82 2.229-2.181 5.215-3.596 8.527-3.817l0.041-0.002h0.005q0.206-0.013 0.407-0.021 0.039-0.002 0.080-0.003l0.143-0.004q0.135-0.002 0.271-0.003 0.181 0.001 0.361 0.005l0.107 0.003c0.172 0.006 0.319 0.014 0.466 0.023l-0.042-0.002c4.288 0.291 7.999 2.53 10.286 5.83l0.029 0.045c0.092 0.133 0.244 0.219 0.416 0.219 0.278 0 0.504-0.226 0.504-0.504 0-0.107-0.033-0.206-0.090-0.287l0.001 0.002c-2.281-3.293-5.812-5.582-9.892-6.184l-0.079-0.010c0.251-0.39 0.392-0.85 0.392-1.331 0-0.274-0.122-0.779-0.941-1.081-0.409-0.15-0.948-0.233-1.518-0.233s-1.11 0.083-1.518 0.233c-0.819 0.301-0.941 0.806-0.941 1.081 0 0.48 0.141 0.938 0.39 1.328-3.045 0.431-5.87 1.81-8.109 3.99-2.617 2.547-4.162 5.92-4.386 9.543h-1.195c-0.812 0.001-1.47 0.658-1.471 1.47v0.615c0.001 0.812 0.659 1.47 1.47 1.471h5.43c-0.271 0.186-0.53 0.394-0.773 0.625l-0.010 0.009c-0.016 0.015-0.030 0.030-0.044 0.046l-0.001 0.001-2.393 2.906c-0.21-0.137-0.468-0.218-0.744-0.218-0.093 0-0.184 0.009-0.272 0.027l0.009-0.001c-0.373 0.071-0.687 0.285-0.888 0.581l-0.003 0.005-0.941 1.388c-0.15 0.219-0.239 0.49-0.239 0.781 0 0.477 0.239 0.898 0.604 1.149l0.005 0.003 6.441 4.375c0.218 0.151 0.488 0.242 0.78 0.242 0.094 0 0.185-0.009 0.274-0.027l-0.009 0.001c0.373-0.072 0.686-0.285 0.887-0.582l0.003-0.005 0.941-1.388c0.15-0.219 0.24-0.49 0.24-0.781 0-0.477-0.239-0.897-0.605-1.149l-0.005-0.003-0.037-0.025c0.436-0.497 1.015-0.859 1.674-1.019l0.022-0.005c1.37-0.318 2.982-0.113 4.076 0.068 1.352 0.224 2.773 0.148 4.109-0.222l1.856-0.513c1.307-0.367 2.444-0.961 3.424-1.744l-0.019 0.015 3.187-2.822c0.544-0.416 0.662-1.136 0.474-1.719h4.066c0.812-0.001 1.469-0.658 1.471-1.47v-0.616c-0.001-0.812-0.659-1.47-1.47-1.471h-0zM17.231 1.008c0.849 0 1.358 0.21 1.451 0.327-0.008 0.492-0.258 0.923-0.637 1.181l-0.005 0.003q-0.148-0.008-0.294-0.013l-0.098-0.003c-0.122-0.004-0.266-0.006-0.411-0.006-0.156 0-0.311 0.003-0.465 0.008l0.023-0.001-0.173 0.006q-0.099 0.004-0.198 0.010c-0.384-0.261-0.635-0.692-0.642-1.183v-0.001c0.094-0.117 0.602-0.327 1.451-0.327zM20.846 19.974c-0.042-0.094-0.086-0.174-0.137-0.249l0.004 0.006h4.835l-2.090 1.384-2.98 0.862-0.101 0.002c0.377-0.316 0.615-0.788 0.615-1.315 0-0.25-0.053-0.487-0.149-0.701l0.004 0.011zM15.379 19.731l-0.728 0.152-0.562-0.152zM9.694 29.085l-0.941 1.388c-0.057 0.083-0.143 0.142-0.244 0.162l-0.002 0c-0.022 0.004-0.047 0.007-0.072 0.007-0.081 0-0.155-0.025-0.217-0.067l0.001 0.001-6.441-4.376c-0.102-0.070-0.168-0.186-0.168-0.318 0-0.080 0.025-0.155 0.067-0.217l-0.001 0.001 0.941-1.388c0.069-0.102 0.184-0.169 0.315-0.169 0.001 0 0.002 0 0.003 0h-0c0.076 0 0.151 0.023 0.215 0.067l6.441 4.375c0.102 0.070 0.168 0.186 0.168 0.318 0 0.081-0.025 0.155-0.067 0.217l0.001-0.001zM27.832 20.654c-0.013 0.010-0.025 0.019-0.035 0.029l0.001-0-3.19 2.826c-0.852 0.675-1.86 1.198-2.956 1.508l-0.060 0.015-1.856 0.513c-1.195 0.33-2.466 0.399-3.676 0.198-1.179-0.195-2.923-0.414-4.469-0.056-0.895 0.207-1.712 0.722-2.306 1.437l-4.765-3.236 2.313-2.809c0.875-0.826 1.984-1.316 3.046-1.346h0.021c0.33-0.005 0.678 0.092 1.047 0.195l0.222 0.062 3.338 0.9c0.077 0.020 0.157 0.023 0.234 0.006l4.372-0.912c0.046-0.010 0.099-0.016 0.153-0.016 0.156 0 0.301 0.047 0.421 0.129l-0.003-0.002c0.106 0.072 0.19 0.172 0.24 0.287 0.15 0.34 0.009 0.739-0.326 0.912l-1.492 0.79c-0.16 0.087-0.268 0.253-0.268 0.445 0 0.278 0.226 0.504 0.504 0.504 0.004 0 0.007-0 0.011-0h-0.001l2.212-0.048q0.066-0.001 0.129-0.020l3.117-0.902q0.074-0.021 0.138-0.064l3.146-2.081c0.263-0.163 0.615-0.297 0.802-0.021 0.146 0.214 0.149 0.601-0.065 0.758z"></path>
</symbol>

<symbol id="icon-coffee-shops" viewBox="0 0 31 32">
<path d="M27.231 2.854h-1.515l-0.421-2.068c-0.092-0.449-0.482-0.782-0.951-0.785h-17.132c-0.469 0.004-0.859 0.337-0.95 0.779l-0.001 0.006-0.421 2.068h-1.516c-0.668 0-1.213 0.552-1.213 1.23v2.034c0 0.678 0.544 1.23 1.213 1.23h0.596l0.338 2.403c-0.102 0.060-0.196 0.136-0.275 0.228-0.162 0.19-0.261 0.438-0.261 0.709 0 0.054 0.004 0.106 0.011 0.158l-0.001-0.006 2.253 16.041c0.062 0.442 0.39 0.793 0.804 0.897l0.32 2.284c0.123 0.871 0.869 1.528 1.738 1.528h11.86c0.868 0 1.615-0.657 1.738-1.528l0.32-2.284c0.423-0.11 0.741-0.459 0.804-0.891l0.001-0.006 2.253-16.041c0.007-0.046 0.011-0.098 0.011-0.152 0-0.271-0.099-0.52-0.263-0.711l0.001 0.002c-0.078-0.090-0.169-0.166-0.27-0.226l-0.005-0.003 0.338-2.403h0.596c0.669 0 1.213-0.552 1.213-1.23v-2.034c0-0.678-0.544-1.23-1.213-1.23zM25.919 10.71l-2.253 16.041c-0.011 0.075-0.074 0.132-0.151 0.133h-4.374c-0.252 0-0.457 0.207-0.457 0.463s0.204 0.463 0.457 0.463h3.699l-0.298 2.121c-0.059 0.413-0.408 0.728-0.832 0.732h-11.862c-0.424-0.005-0.773-0.319-0.831-0.727l-0.001-0.005-0.298-2.121h8.295c0.253 0 0.457-0.207 0.457-0.463s-0.204-0.463-0.457-0.463h-8.971c-0.077-0.001-0.14-0.058-0.151-0.132l-0-0.001-2.253-16.041c-0.001-0.007-0.002-0.015-0.002-0.024 0-0.082 0.064-0.148 0.145-0.152h0l0.019-0.001 19.976 0.001c0.081 0.004 0.145 0.071 0.145 0.152 0 0.008-0.001 0.016-0.002 0.024l0-0.001zM5.844 7.347h19.869l-0.317 2.259h-19.235zM27.531 6.117c0 0 0 0.001 0 0.001 0 0.166-0.134 0.301-0.299 0.302h-22.907c-0.166-0.001-0.3-0.136-0.3-0.302 0-0 0-0.001 0-0.001v0-2.033c0-0 0-0.001 0-0.001 0-0.166 0.134-0.301 0.3-0.302h4.090c0.252 0 0.457-0.207 0.457-0.463s-0.204-0.464-0.456-0.464h-1.641l0.383-1.881c0.006-0.026 0.028-0.046 0.056-0.046h17.132c0.028 0 0.050 0.020 0.056 0.046l0 0 0.383 1.881h-14.241c-0.252 0-0.457 0.207-0.457 0.463s0.204 0.463 0.457 0.463h16.69c0.166 0.002 0.3 0.136 0.3 0.302 0 0 0 0.001 0 0.001v-0z"></path>
<path d="M18.957 14.751l-0.010-0.009c-1.519-1.524-4.287-1.208-6.179 0.71-0.904 0.916-1.48 2.061-1.623 3.224-0.148 1.206 0.184 2.289 0.934 3.049l0.004 0.004c0.633 0.639 1.492 0.978 2.458 0.978q0.268 0 0.547-0.036c1.148-0.144 2.277-0.729 3.182-1.645 1.896-1.922 2.206-4.736 0.689-6.274zM12.053 18.79c0.118-0.96 0.601-1.912 1.362-2.684 0.912-0.924 2.053-1.411 3.073-1.411 0.469 0 0.912 0.104 1.296 0.314-0.768 0.462-1.959 1.371-2.322 2.718-0.316 1.171-2.026 2.468-2.965 3.070-0.382-0.532-0.54-1.231-0.445-2.008zM17.624 20.372c-0.761 0.771-1.701 1.261-2.648 1.381-0.669 0.084-1.28-0.027-1.773-0.314 0.942-0.63 2.748-2 3.142-3.467 0.323-1.198 1.596-2.004 2.178-2.318 0.905 1.22 0.54 3.26-0.899 4.718z"></path>
</symbol>

<symbol id="icon-ratio-star" viewBox="0 0 32 32">
<path d="M15.846 0l4.996 9.788 10.852 1.724-7.765 7.774 1.713 10.856-9.796-4.983-9.792 4.983 1.711-10.856-7.765-7.774 10.852-1.724z"></path>
</symbol>

<symbol id="icon-contacts-form" viewBox="0 0 33 32">
<path d="M13.662 10.331l-2.565-2.474c-0.095-0.092-0.223-0.148-0.366-0.148s-0.271 0.056-0.366 0.148l-1.099 1.059c-0.286 0.27-0.673 0.436-1.099 0.436s-0.813-0.166-1.1-0.437l0.001 0.001-0.126-0.12c-0.14-0.135-0.254-0.297-0.332-0.477l-0.004-0.010c-0.076-0.17-0.12-0.368-0.12-0.577 0-0.416 0.175-0.792 0.456-1.056l0.001-0.001 1.097-1.063c0.092-0.089 0.15-0.215 0.15-0.353s-0.057-0.264-0.15-0.353l-0-0-2.561-2.474c-0.095-0.092-0.223-0.148-0.366-0.148s-0.271 0.056-0.366 0.148l0-0-1.098 1.061c-0.838 0.803-1.361 1.931-1.365 3.181v0.001c0 1.193 0.49 2.338 1.363 3.183l2.322 2.242c0.852 0.814 2.009 1.315 3.283 1.315 0.005 0 0.009 0 0.014-0h-0.001c0.004 0 0.008 0 0.012 0 1.274 0 2.431-0.501 3.285-1.317l-0.002 0.002 1.099-1.061c0.093-0.089 0.15-0.215 0.15-0.354s-0.058-0.264-0.15-0.354l-0-0zM10.731 8.917l1.831 1.768-0.366 0.354-1.831-1.768zM5.113 3.493l1.831 1.768-0.366 0.354-1.831-1.769zM6.704 11.393l-2.323-2.243c-0.592-0.569-0.981-1.345-1.050-2.212l-0.001-0.012c-0.006-0.074-0.009-0.159-0.009-0.246 0-0.795 0.271-1.528 0.725-2.109l-0.006 0.008 1.84 1.778c-0.268 0.386-0.428 0.864-0.428 1.379 0 0.695 0.291 1.322 0.759 1.766l0.001 0.001 0.126 0.121c0.477 0.453 1.123 0.731 1.835 0.731 0.528 0 1.021-0.154 1.435-0.419l-0.011 0.006 1.84 1.777c-0.602 0.435-1.354 0.695-2.167 0.695-0.093 0-0.185-0.003-0.276-0.010l0.012 0.001c-0.899-0.062-1.7-0.437-2.304-1.015l0.001 0.001z"></path>
<path d="M14.089 16.143h-11.392c-0.411 0-0.807-0.158-1.097-0.439-0.279-0.268-0.454-0.644-0.457-1.060v-12.001c0-0.399 0.163-0.779 0.455-1.062 0.291-0.281 0.686-0.439 1.098-0.439h11.394c0.411 0 0.806 0.158 1.097 0.439 0.291 0.282 0.456 0.663 0.456 1.062v12c0 0.398-0.165 0.778-0.456 1.061-0.291 0.281-0.686 0.439-1.097 0.439zM2.697 2.143c-0.001 0-0.001 0-0.002 0-0.141 0-0.27 0.056-0.364 0.146l0-0c-0.093 0.089-0.152 0.215-0.152 0.354v12c0.001 0.139 0.059 0.264 0.152 0.353l0 0c0.097 0.094 0.229 0.146 0.366 0.146h11.394c0.137 0 0.269-0.053 0.366-0.146 0.093-0.090 0.151-0.215 0.151-0.354 0 0 0 0 0 0v0-12c-0.001-0.139-0.059-0.264-0.152-0.353l-0-0c-0.094-0.091-0.223-0.146-0.364-0.146-0.001 0-0.001 0-0.002 0h0zM14.089 31.143h-11.392c-0.411 0-0.807-0.158-1.097-0.439-0.279-0.268-0.454-0.644-0.457-1.060v-11.001c0-0.399 0.163-0.779 0.455-1.062 0.291-0.281 0.686-0.439 1.098-0.439h11.394c0.411 0 0.806 0.158 1.097 0.439 0.291 0.282 0.456 0.663 0.456 1.061v11c0 0.399-0.165 0.779-0.456 1.062-0.291 0.281-0.686 0.439-1.097 0.439zM2.697 18.143c-0.001 0-0.001 0-0.002 0-0.141 0-0.27 0.056-0.364 0.146l0-0c-0.093 0.089-0.152 0.215-0.152 0.354v11c0.001 0.139 0.059 0.264 0.152 0.353l0 0c0.097 0.094 0.229 0.146 0.366 0.146h11.394c0.137 0 0.269-0.053 0.366-0.146 0.093-0.090 0.151-0.215 0.151-0.354 0 0 0 0 0 0v0-11c-0.001-0.139-0.059-0.264-0.152-0.353l-0-0c-0.094-0.091-0.223-0.146-0.364-0.146-0.001 0-0.001 0-0.002 0h0z"></path>
<path d="M13.269 20.571h-9.323c-0.001 0-0.001 0-0.002 0-0.141 0-0.27 0.056-0.364 0.146l0-0c-0.093 0.089-0.152 0.215-0.152 0.354v6c0.001 0.139 0.059 0.264 0.152 0.353l0 0c0.097 0.094 0.229 0.146 0.366 0.146h9.321c0.137 0 0.27-0.053 0.366-0.146 0.093-0.089 0.152-0.215 0.152-0.354v-6c-0-0.139-0.058-0.264-0.151-0.353l-0-0c-0.094-0.091-0.223-0.146-0.364-0.146-0.001 0-0.001 0-0.002 0h0zM8.606 24.397l-3.297-2.825h6.594zM6.672 24.077l-2.209 1.886v-3.779zM7.453 24.744l0.465 0.4c0.184 0.16 0.426 0.258 0.69 0.258 0 0 0.001 0 0.001 0h-0c0.256 0 0.503-0.091 0.693-0.255l0.466-0.4 2.133 1.824h-6.587zM10.545 24.075l2.203-1.891v3.777zM31.232 1.143h-11.392c-0.411 0-0.807 0.158-1.097 0.439-0.279 0.269-0.453 0.645-0.456 1.061v12c0 0.398 0.163 0.778 0.455 1.061 0.291 0.281 0.686 0.439 1.098 0.439h2.59v6.269l-0.606-1.239c-0.118-0.376-0.371-0.68-0.701-0.862l-0.008-0.004c-0.224-0.126-0.491-0.201-0.776-0.201-0.144 0-0.284 0.019-0.417 0.055l0.011-0.003-0.477 0.123c-0.143 0.037-0.268 0.1-0.376 0.183l0.002-0.002c-0.214 0.166-0.359 0.412-0.388 0.693l-0 0.004c-0.002 0.026-0.004 0.056-0.004 0.087 0 0.112 0.019 0.22 0.054 0.32l-0.002-0.007 2.162 6.063c0.021 0.062 0.053 0.115 0.094 0.16l-0-0 1.402 1.6 0.029 1.271c0.004 0.137 0.063 0.259 0.155 0.346l0 0c0.097 0.091 0.227 0.143 0.362 0.143h7.25c0.137 0 0.269-0.053 0.366-0.146 0.093-0.089 0.152-0.215 0.152-0.354v-1.349l0.949-1.375c0.054-0.077 0.086-0.172 0.087-0.275v-6.501c0-0.007 0-0.015 0-0.023 0-0.198-0.042-0.387-0.118-0.557l0.003 0.009c-0.084-0.188-0.198-0.349-0.338-0.482l-0.001-0.001c-0.211-0.2-0.477-0.344-0.774-0.406l-0.010-0.002c-0.098-0.021-0.211-0.033-0.327-0.033-0.201 0-0.394 0.036-0.572 0.103l0.011-0.004c-0.069-0.25-0.207-0.478-0.4-0.658-0.211-0.2-0.477-0.344-0.774-0.405l-0.010-0.002c-0.099-0.021-0.212-0.033-0.329-0.033-0.201 0-0.393 0.036-0.57 0.102l0.011-0.004c-0.069-0.25-0.206-0.478-0.399-0.658-0.204-0.194-0.46-0.335-0.746-0.4l-0.011-0.002c-0.107-0.025-0.23-0.039-0.356-0.039-0.181 0-0.355 0.029-0.518 0.084l0.012-0.003v-1.585h5.696c0.411 0 0.807-0.158 1.098-0.439 0.278-0.269 0.452-0.644 0.455-1.060v-12.001c-0.002-0.417-0.176-0.793-0.454-1.061l-0-0c-0.283-0.272-0.668-0.439-1.092-0.439-0.002 0-0.004 0-0.006 0h0zM26.056 18.643c0 0 0 0 0 0 0.213 0 0.396 0.126 0.478 0.308l0.001 0.003c0.024 0.054 0.038 0.116 0.038 0.182 0 0.002-0 0.005-0 0.007v-0 3.501c0.001 0.139 0.059 0.264 0.152 0.353l0 0c0.095 0.092 0.224 0.148 0.366 0.148s0.271-0.056 0.366-0.148l-0 0c0.093-0.089 0.152-0.215 0.152-0.354v-2.499c0-0.139 0.059-0.265 0.152-0.354l0-0c0.094-0.091 0.223-0.147 0.365-0.147 0.213 0 0.397 0.127 0.479 0.31l0.001 0.003c0.025 0.054 0.039 0.118 0.039 0.184 0 0.001 0 0.003-0 0.004v-0 2.501c0 0.139 0.058 0.264 0.151 0.353l0 0c0.095 0.092 0.224 0.149 0.366 0.149s0.272-0.057 0.366-0.149l-0 0c0.093-0.089 0.152-0.215 0.152-0.354v-1.499c0-0.139 0.059-0.265 0.152-0.354l0-0c0.094-0.091 0.223-0.147 0.365-0.147 0.213 0 0.397 0.127 0.479 0.31l0.001 0.003c0.024 0.054 0.038 0.116 0.038 0.182 0 0.002-0 0.005-0 0.007v-0 6.35l-0.949 1.375c-0.054 0.077-0.086 0.172-0.087 0.275v1h-6.225l-0.022-0.96c-0.003-0.121-0.049-0.23-0.123-0.314l0 0.001-1.459-1.663-2.126-5.965 0.473-0.122c0.040-0.011 0.087-0.017 0.135-0.017 0.096 0 0.187 0.025 0.266 0.069l-0.003-0.001c0.115 0.064 0.201 0.17 0.239 0.296l0.001 0.004c0.007 0.030 1.643 3.382 1.643 3.382 0.049 0.103 0.134 0.185 0.24 0.235 0.066 0.031 0.143 0.049 0.225 0.049 0.161 0 0.305-0.071 0.403-0.182l0-0.001c0.071-0.083 0.115-0.191 0.117-0.309v-9.944c-0-0.007-0-0.015-0-0.023 0-0.131 0.048-0.25 0.127-0.342l-0.001 0.001c0.086-0.1 0.206-0.169 0.341-0.192l0.003-0c0.016-0.002 0.034-0.003 0.052-0.003 0.212 0 0.395 0.127 0.475 0.309l0.001 0.003q0.039 0.091 0.037 0.19v8c0 0.139 0.059 0.265 0.152 0.354l0 0c0.095 0.092 0.224 0.149 0.366 0.149s0.272-0.057 0.366-0.149l-0 0c0.093-0.089 0.152-0.215 0.152-0.354v-3.499c0-0.139 0.059-0.265 0.152-0.354l0-0c0.094-0.091 0.223-0.146 0.364-0.146 0.001 0 0.001 0 0.002 0h-0zM31.752 14.642c-0.001 0.139-0.059 0.264-0.152 0.353l-0 0c-0.094 0.091-0.223 0.146-0.364 0.146-0.001 0-0.001 0-0.002 0h-5.696v-0.499c0-0.006 0-0.013 0-0.020 0-0.199-0.043-0.389-0.119-0.56l0.003 0.009c-0.083-0.189-0.197-0.349-0.337-0.483l-0.001-0.001c-0.156-0.154-0.346-0.275-0.556-0.351l-0.011-0.003c-0.159-0.058-0.342-0.092-0.533-0.092-0.048 0-0.095 0.002-0.142 0.006l0.006-0c-0.406 0.042-0.761 0.23-1.018 0.51l-0.001 0.001c-0.247 0.268-0.399 0.627-0.399 1.022 0 0.006 0 0.013 0 0.019v-0.001 0.443h-2.59c-0.001 0-0.001 0-0.002 0-0.141 0-0.27-0.056-0.364-0.146l0 0c-0.093-0.089-0.152-0.215-0.152-0.354v-12c0.001-0.139 0.059-0.264 0.152-0.353l0-0c0.094-0.091 0.223-0.146 0.364-0.146 0.001 0 0.001 0 0.002 0h11.394c0.137 0 0.269 0.053 0.366 0.146 0.093 0.090 0.151 0.215 0.151 0.354 0 0 0 0 0 0v0z"></path>
<path d="M24.714 4.571c-1.098 0-2.152 0.422-2.929 1.171-0.746 0.714-1.21 1.717-1.214 2.828v0.001c0.004 1.112 0.468 2.114 1.212 2.827l0.001 0.001c0.758 0.725 1.787 1.171 2.921 1.171 0.003 0 0.005 0 0.008 0h2.072c0.137 0 0.269-0.053 0.366-0.146 0.093-0.089 0.15-0.215 0.15-0.354s-0.058-0.264-0.15-0.354l-0-0c-0.094-0.091-0.223-0.146-0.364-0.146-0.001 0-0.001 0-0.002 0h-2.072c-0 0-0 0-0 0-0.641 0-1.238-0.188-1.738-0.513l0.012 0.008c-0.504-0.326-0.898-0.785-1.137-1.327l-0.008-0.019c-0.149-0.338-0.236-0.732-0.236-1.147 0-0.208 0.022-0.411 0.063-0.606l-0.003 0.019c0.119-0.583 0.415-1.117 0.85-1.536 0.425-0.409 0.967-0.7 1.571-0.818l0.020-0.003c0.182-0.037 0.391-0.058 0.605-0.058 0.428 0 0.837 0.084 1.211 0.237l-0.021-0.008c0.575 0.232 1.049 0.613 1.388 1.095l0.007 0.010c0.343 0.493 0.525 1.073 0.525 1.666v0.501c-0.001 0.139-0.059 0.264-0.152 0.353l-0 0c-0.095 0.092-0.224 0.148-0.366 0.148s-0.271-0.056-0.366-0.148l0 0c-0.094-0.089-0.152-0.215-0.153-0.354v-0.5c0.005-0.464-0.158-0.914-0.457-1.278-0.299-0.356-0.71-0.61-1.178-0.708l-0.014-0.002c-0.131-0.028-0.282-0.044-0.436-0.044-0.347 0-0.675 0.081-0.965 0.226l0.013-0.006c-0.425 0.212-0.759 0.552-0.956 0.97l-0.005 0.013c-0.194 0.425-0.23 0.902-0.103 1.349 0.128 0.448 0.411 0.839 0.803 1.109 0.338 0.234 0.758 0.374 1.21 0.374 0.547 0 1.047-0.205 1.425-0.543l-0.002 0.002c0.203 0.237 0.478 0.407 0.785 0.487s0.633 0.069 0.934-0.038c0.299-0.104 0.558-0.297 0.741-0.549 0.183-0.253 0.279-0.553 0.278-0.862v-0.499c-0.004-1.111-0.469-2.114-1.213-2.826l-0.001-0.001c-0.758-0.726-1.788-1.173-2.923-1.173-0.002 0-0.004 0-0.006 0h0zM24.714 9.571c-0 0-0.001 0-0.001 0-0.213 0-0.411-0.063-0.578-0.171l0.004 0.002c-0.167-0.11-0.298-0.262-0.379-0.443l-0.003-0.007c-0.050-0.113-0.079-0.246-0.079-0.385 0-0.278 0.116-0.528 0.303-0.705l0-0c0.191-0.181 0.45-0.292 0.735-0.292 0.142 0 0.277 0.028 0.401 0.078l-0.007-0.003c0.191 0.078 0.349 0.205 0.462 0.366l0.002 0.003c0.11 0.155 0.176 0.349 0.176 0.557 0 0.278-0.116 0.528-0.303 0.705l-0 0c-0.189 0.181-0.445 0.293-0.728 0.293-0.002 0-0.003 0-0.005 0h0z"></path>
</symbol>

<symbol id="icon-facebook" viewBox="0 0 32 32">
<path d="M27.312 0h-22.624c-2.588 0.003-4.685 2.1-4.688 4.688v22.624c0.003 2.588 2.1 4.686 4.688 4.688h9.436v-11.312h-3.748v-5.626h3.748v-3.811c0.002-3.106 2.519-5.624 5.624-5.626h5.688v5.625h-5.687v3.812h5.687l-0.937 5.626h-4.751v11.312h7.564c2.588-0.003 4.686-2.1 4.688-4.688v-22.624c-0.003-2.588-2.1-4.686-4.688-4.688h-0z"></path>
</symbol>

<symbol id="icon-telegram" viewBox="0 0 32 32">
<path d="M7.7 17.751l3.98 9.949 5.181-5.181 8.884 7.060 6.255-28.125-32 13.329zM22.857 9.524l-9.795 8.934-1.222 4.596-2.252-5.633z"></path>
</symbol>

<symbol id="icon-instagram" viewBox="0 0 32 32">
<path d="M27.312 0h-22.624c-2.588 0.003-4.685 2.1-4.688 4.688v22.624c0.003 2.588 2.1 4.686 4.688 4.688h22.624c2.588-0.003 4.686-2.1 4.688-4.688v-22.624c-0.003-2.588-2.1-4.686-4.688-4.688h-0zM16.063 24.375c-4.657-0.006-8.431-3.78-8.436-8.437v-0c0-4.653 3.783-8.436 8.436-8.436s8.436 3.783 8.436 8.436-3.783 8.436-8.436 8.436zM25.437 9.373c-1.552-0.002-2.809-1.26-2.812-2.811v-0c0-1.551 1.261-2.813 2.812-2.813s2.813 1.263 2.813 2.813c-0.002 1.552-1.261 2.81-2.813 2.812h-0z"></path>
<path d="M25.665 5.818c-0.518 0-0.938 0.42-0.938 0.938s0.42 0.938 0.938 0.938v0c0.518 0 0.938-0.42 0.938-0.938s-0.42-0.938-0.938-0.938v0zM16.745 8.727c-3.623 0.004-6.559 2.94-6.563 6.563v0c0.005 3.622 2.941 6.557 6.563 6.561h0c3.622-0.005 6.556-2.94 6.561-6.561v-0c-0.004-3.622-2.939-6.558-6.561-6.563h-0z"></path>
</symbol>


</defs>
</svg>
